#N canvas 1359 148 587 571 10;
#N canvas 1448 610 702 707 GEM 1;
#X obj 44 216 gemwin;
#X obj 44 113 sel 1 0;
#X msg 63 180 0 \, destroy;
#X obj 44 85 tgl 15 0 empty empty empty 17 7 0 10 -262144 -1 -1 0 1
;
#X obj 44 27 gemkeyboard;
#X obj 44 54 sel 9;
#X obj 123 27 key;
#X obj 123 68 sel 27;
#X msg 81 485 border 0 \, view 0 2.66 4 \, offset 128 0 \, dimen 1024
768 \, color 1 1 1 \, create \, 1;
#X msg 118 337 border 1 \, view 0 2.66 4 \, offset 0 0 \, dimen 1280
720 \, color 1 1 1 \, create \, 1;
#X obj 151 109 loadbang;
#X msg 44 144 border 0 \, view 0 2.66 4 \, offset 0 0 \, cursor 0 \,
dimen 2560 1440 \, color 1 1 1 \, create \, 1;
#X connect 1 0 11 0;
#X connect 1 1 2 0;
#X connect 2 0 0 0;
#X connect 3 0 1 0;
#X connect 4 0 5 0;
#X connect 5 0 3 0;
#X connect 6 0 7 0;
#X connect 7 0 3 0;
#X connect 8 0 0 0;
#X connect 9 0 0 0;
#X connect 10 0 11 0;
#X connect 11 0 0 0;
#X restore 20 -310 pd GEM;
#N canvas 1110 307 1250 635 decors 0;
#X obj 220 198 color 0 0 0;
#X obj 220 225 rectangle 2.665 4;
#X obj 220 171 translateXYZ 2.665 2.66 0;
#X obj 509 347 pix_texture;
#X obj 509 437 rectangle;
#X obj 831 344 pix_texture;
#X obj 831 434 rectangle;
#X obj 509 196 alpha;
#X obj 831 196 alpha;
#X obj 831 153 gemhead 80;
#X obj 509 156 gemhead 80;
#X obj 220 144 gemhead 10;
#X obj 831 293 pix_info;
#X floatatom 924 355 5 0 0 0 - - -, f 5;
#X floatatom 983 352 5 0 0 0 - - -, f 5;
#X obj 509 298 pix_info;
#X floatatom 602 360 5 0 0 0 - - -, f 5;
#X floatatom 661 357 5 0 0 0 - - -, f 5;
#X obj 509 233 translateXYZ -1.23 5.44 0;
#X obj 831 230 translateXYZ 1.23 5.44 0;
#X obj 509 260 pix_image ampli1.jpg;
#X obj 831 257 pix_image ampli2.jpg;
#X obj 602 386 / 200;
#X obj 661 383 / 200;
#X obj 924 381 / 200;
#X obj 983 378 / 200;
#X obj 403 295 loadbang;
#X msg 401 330 quality 0;
#X obj 734 276 loadbang;
#X msg 732 311 quality 0;
#X obj 33 202 color 0 0 0;
#X obj 33 229 rectangle 2.665 4;
#X obj 33 148 gemhead 10;
#X floatatom 134 132 5 0 0 0 - - -, f 5;
#X obj 33 175 translateXYZ -8 2.66 0;
#X connect 0 0 1 0;
#X connect 2 0 0 0;
#X connect 3 0 4 0;
#X connect 5 0 6 0;
#X connect 7 0 18 0;
#X connect 8 0 19 0;
#X connect 9 0 8 0;
#X connect 10 0 7 0;
#X connect 11 0 2 0;
#X connect 12 0 5 0;
#X connect 12 1 13 0;
#X connect 12 2 14 0;
#X connect 13 0 24 0;
#X connect 14 0 25 0;
#X connect 15 0 3 0;
#X connect 15 1 16 0;
#X connect 15 2 17 0;
#X connect 16 0 22 0;
#X connect 17 0 23 0;
#X connect 18 0 20 0;
#X connect 19 0 21 0;
#X connect 20 0 15 0;
#X connect 21 0 12 0;
#X connect 22 0 4 1;
#X connect 23 0 4 2;
#X connect 24 0 6 1;
#X connect 25 0 6 2;
#X connect 26 0 27 0;
#X connect 27 0 3 0;
#X connect 28 0 29 0;
#X connect 29 0 5 0;
#X connect 30 0 31 0;
#X connect 32 0 34 0;
#X connect 33 0 34 1;
#X connect 34 0 30 0;
#X restore 20 -283 pd decors;
#X obj 215 -32 vsl 8 200 0 100 0 0 y-in-1 son-in-vu-1 empty 0 -8 0
8 -228992 -1 -1 7960 1;
#X obj 224 -32 vsl 10 200 0 100 0 0 y-max-1 empty empty 0 -8 0 8 -257472
-1 -1 11940 1;
#X floatatom 217 182 5 0 0 0 - y-max-1 -, f 5;
#X floatatom 180 182 3 0 0 0 - y-in-1 son-in-1, f 3;
#X obj 234 -32 vsl 10 200 0 100 0 0 y-min-1 empty empty 0 -8 0 8 -257472
-1 -1 16220 1;
#X floatatom 255 182 5 0 0 0 - y-min-1 -, f 5;
#X obj 408 -32 vsl 8 200 0 100 0 0 y-in-2 son-in-vu-2 empty 0 -8 0
8 -228992 -1 -1 7960 1;
#X obj 417 -32 vsl 10 200 0 100 0 0 y-max-2 empty empty 0 -8 0 8 -257472
-1 -1 11940 1;
#X floatatom 410 182 5 0 0 0 - y-max-2 -, f 5;
#X floatatom 373 182 3 0 0 0 - y-in-2 son-in-2, f 3;
#X obj 427 -32 vsl 10 200 0 100 0 0 y-min-2 empty empty 0 -8 0 8 -257472
-1 -1 16220 1;
#X floatatom 448 182 5 0 0 0 - y-min-2 -, f 5;
#X obj 312 -237 vsl 10 200 0 100 0 0 empty empty empty 0 -8 0 8 -257472
-1 -1 11940 1;
#X obj 322 -237 vsl 10 200 0 100 0 0 empty empty empty 0 -8 0 8 -257472
-1 -1 16220 1;
#X obj 317 -300 loadbang;
#X text 262 -11 <---- limite A ---->;
#X text 262 20 <---- limite B ---->;
#X text 341 -210 Pour regler les jauges des;
#X text 341 -195 deux équipes en même temps;
#X text 370 -268 Initialisation des jauges;
#X text 224 200 A;
#X text 264 200 B;
#X text 180 200 Niv;
#X text 418 199 A;
#X text 458 199 B;
#X text 374 199 Niv;
#N canvas 424 179 853 446 son-in 0;
#X obj 439 245 tgl 10 0 empty empty empty 0 -6 0 8 -262144 -1 -1 1
1;
#X obj 160 255 spigot 0;
#X obj 455 245 tgl 10 0 empty empty empty 0 -6 0 8 -262144 -1 -1 1
1;
#X obj 613 255 spigot 0;
#X obj 205 313 s son-in-vu-1;
#X obj 160 218 i;
#X obj 613 207 i;
#X obj 160 60 adc~ 1;
#X obj 613 75 adc~ 2;
#X obj 613 177 env~ 8192;
#X obj 160 128 hip~ 5;
#X obj 160 177 env~ 8192;
#X obj 614 132 hip~ 5;
#X obj 412 60 r pause;
#X obj 412 173 t b f;
#X msg 479 188 1;
#X obj 160 282 moses 40;
#X obj 613 289 moses 40;
#X obj 658 320 s son-in-vu-2;
#X msg 126 299 40;
#X msg 412 385 40;
#X msg 579 306 40;
#X obj 479 90 r reset;
#X obj 289 121 r start;
#X obj 412 138 tgl 15 0 empty empty empty 17 7 0 10 -262144 -1 -1 1
1;
#X msg 426 107 set 1;
#X obj 529 90 r win;
#X msg 529 121 0;
#X connect 0 0 1 1;
#X connect 1 0 16 0;
#X connect 2 0 3 1;
#X connect 3 0 17 0;
#X connect 5 0 1 0;
#X connect 6 0 3 0;
#X connect 7 0 10 0;
#X connect 8 0 12 0;
#X connect 9 0 6 0;
#X connect 10 0 11 0;
#X connect 11 0 5 0;
#X connect 12 0 9 0;
#X connect 13 0 24 0;
#X connect 14 0 20 0;
#X connect 14 1 0 0;
#X connect 14 1 2 0;
#X connect 15 0 0 0;
#X connect 15 0 2 0;
#X connect 16 0 19 0;
#X connect 16 1 4 0;
#X connect 17 0 21 0;
#X connect 17 1 18 0;
#X connect 19 0 16 0;
#X connect 20 0 4 0;
#X connect 20 0 18 0;
#X connect 21 0 17 0;
#X connect 22 0 25 0;
#X connect 22 0 15 0;
#X connect 23 0 24 0;
#X connect 24 0 14 0;
#X connect 25 0 24 0;
#X connect 26 0 27 0;
#X connect 27 0 24 0;
#X coords 0 -1 1 1 100 19 1 370 240;
#X restore 276 108 pd son-in;
#X text 276 87 Ouvre les micros;
#N canvas 1197 727 1265 686 gestionduson 0;
#X obj 189 448 text2d;
#X msg 206 414 text GO !;
#X obj 711 438 text2d;
#X msg 728 404 text GO !;
#X obj 728 379 loadbang;
#X obj 206 387 loadbang;
#X obj 189 340 color 0 0 0;
#X obj 270 278 text2d;
#X obj 287 217 loadbang;
#X obj 270 170 color 0 0 0;
#X msg 287 244 text GO GO !;
#X obj 792 268 text2d;
#X obj 809 207 loadbang;
#X msg 809 234 text GO GO !;
#X obj 449 -81 loadbang;
#X msg 449 -48 \; pd dsp 1 \;;
#X text 188 14 Equipe noire;
#X text 711 20 Equipe blanche;
#X obj 189 362 translateXYZ -4.38 3.2 0;
#X obj 711 352 translateXYZ 4.38 3.2 0;
#X obj 792 151 color 1 1 1;
#X obj 711 319 color 1 1 1;
#X obj 189 72 gest-son-max 1;
#X obj 189 45 r y-in-1;
#X obj 711 45 r y-in-2;
#X obj 101 72 r reset;
#X obj 711 72 gest-son-max 2;
#X obj 28 73 loadbang;
#X msg 28 108 0;
#X obj 629 72 r reset;
#X obj 556 73 loadbang;
#X msg 556 108 0;
#X msg 865 266 font vera.ttf;
#X msg 349 282 font vera.ttf;
#X msg 290 440 font vera.ttf;
#X msg 846 422 font vera.ttf;
#X msg 839 396 80;
#X msg 314 404 80;
#X msg 398 234 80;
#X msg 919 224 80;
#X obj 270 125 gemhead 90;
#X obj 189 295 gemhead 90;
#X obj 792 125 gemhead 90;
#X obj 711 285 gemhead 90;
#X floatatom 900 146 5 0 0 0 - - -, f 5;
#X obj 270 192 translateXYZ -4.2 4 0;
#X obj 792 182 translateXYZ 4.25 4 0;
#X connect 1 0 0 0;
#X connect 3 0 2 0;
#X connect 4 0 3 0;
#X connect 4 0 36 0;
#X connect 4 0 35 0;
#X connect 5 0 1 0;
#X connect 5 0 37 0;
#X connect 5 0 34 0;
#X connect 6 0 18 0;
#X connect 8 0 10 0;
#X connect 8 0 38 0;
#X connect 8 0 33 0;
#X connect 9 0 45 0;
#X connect 10 0 7 0;
#X connect 12 0 13 0;
#X connect 12 0 39 0;
#X connect 12 0 32 0;
#X connect 13 0 11 0;
#X connect 14 0 15 0;
#X connect 18 0 0 0;
#X connect 19 0 2 0;
#X connect 20 0 46 0;
#X connect 21 0 19 0;
#X connect 22 0 41 0;
#X connect 22 1 40 0;
#X connect 23 0 22 0;
#X connect 24 0 26 0;
#X connect 25 0 28 0;
#X connect 26 0 43 0;
#X connect 26 1 42 0;
#X connect 27 0 28 0;
#X connect 28 0 40 0;
#X connect 28 0 41 0;
#X connect 29 0 31 0;
#X connect 30 0 31 0;
#X connect 31 0 42 0;
#X connect 31 0 43 0;
#X connect 32 0 11 0;
#X connect 33 0 7 0;
#X connect 34 0 0 0;
#X connect 35 0 2 0;
#X connect 36 0 2 1;
#X connect 37 0 0 1;
#X connect 38 0 7 1;
#X connect 39 0 11 1;
#X connect 40 0 9 0;
#X connect 41 0 6 0;
#X connect 42 0 20 0;
#X connect 43 0 21 0;
#X connect 44 0 46 1;
#X connect 45 0 7 0;
#X connect 46 0 11 0;
#X restore 20 -256 pd gestionduson;
#X obj 20 -128 cnv 15 200 30 empty empty empty 20 12 0 14 -258113 -66577
0;
#X text 40 -122 /!/ CHANGER LES VUMETRES;
#N canvas 871 214 1265 711 pause 0;
#X obj 176 95 pix_texture;
#X obj 176 -21 pix_info;
#X floatatom 266 80 5 0 0 0 - - -, f 5;
#X floatatom 325 77 5 0 0 0 - - -, f 5;
#X obj 176 188 rectangle;
#X obj 176 -48 pix_image pause.jpg;
#X obj 176 -102 gemhead 51;
#X obj 176 -76 translateXYZ -0.07 2.66 0;
#X obj 266 106 / 163;
#X obj 325 103 / 163;
#X obj 176 -375 r pause;
#X obj 273 -376 r reset;
#X obj 176 -162 metro 500;
#X obj 176 -131 tgl 15 0 empty empty empty 17 7 0 10 -262144 -1 -1
0 1;
#X obj 176 -235 tgl 15 0 empty empty empty 17 7 0 10 -262144 -1 -1
0 1;
#X msg 248 -148 0;
#X msg 273 -349 0;
#X obj 176 -210 t f b;
#X obj 606 15 pix_texture;
#X obj 606 -101 pix_info;
#X floatatom 696 0 5 0 0 0 - - -, f 5;
#X floatatom 755 -3 5 0 0 0 - - -, f 5;
#X obj 606 108 rectangle;
#X obj 606 -215 gemhead 51;
#X obj 696 26 / 163;
#X obj 755 23 / 163;
#X obj 606 -240 tgl 15 0 empty empty empty 17 7 0 10 -262144 -1 -1
0 1;
#X obj 606 -337 r reset;
#X msg 606 -310 1;
#X msg 659 -310 0;
#X obj 659 -337 r start;
#X obj 176 -332 spigot;
#X obj 273 -312 r start;
#X msg 273 -285 1;
#X msg 273 -252 0;
#X obj 334 -366 r win;
#X obj 606 -156 translateXYZ -0.1 2.66 0;
#X obj 606 -128 pix_image pret.jpg;
#X obj 899 -341 tgl 15 0 empty empty empty 17 7 0 10 -262144 -1 -1
1 1;
#X obj 899 221 text2d;
#X obj 1161 62 - 1;
#X floatatom 1112 134 5 0 0 0 - - -, f 5;
#X obj 1112 -5 metro 1000;
#X obj 1112 -40 tgl 15 0 empty empty empty 17 7 0 10 -262144 -1 -1
1 1;
#X obj 899 -306 gemhead 60;
#X obj 978 215 loadbang;
#X msg 978 250 150;
#X obj 899 -135 color 0 0 0;
#X obj 899 -18 color 1 1 1;
#X msg 923 180 text \$1 s;
#X obj 899 87 text2d;
#X msg 923 46 text Prochaine course dans;
#X obj 923 19 loadbang;
#X floatatom 977 -306 5 0 0 0 - - -, f 5;
#X obj 899 -264 translateXYZ 0 2.8 0;
#X obj 978 81 loadbang;
#X obj 899 -95 rectangle 2.5 1;
#X obj 899 -53 translateXYZ 0 0.5 0;
#X obj 899 145 translateXYZ 0 -0.7 0;
#X obj 899 -225 color 1 1 1;
#X obj 899 -185 rectangle 2.55 1.05;
#X obj 899 -438 r reset;
#X msg 899 -411 1;
#X msg 952 -411 0;
#X obj 952 -438 r start;
#X obj 1112 -146 r reset;
#X msg 1112 -119 1;
#X msg 1174 -119 0;
#X obj 1174 -146 r start;
#X obj 1112 -93 t b b;
#X obj 1158 191 sel 0;
#X obj 1158 218 s depart;
#X msg 1185 -30 60;
#X obj 1112 45 60;
#X obj 42 -54 loadbang;
#X msg 42 -19 quality 0;
#X obj 502 -52 loadbang;
#X msg 502 -17 quality 0;
#X msg 799 53 font vera.ttf;
#X msg 978 116 120;
#X obj 1112 163 t f f f;
#X obj 1069 214 s cptnext;
#X connect 0 0 4 0;
#X connect 1 0 0 0;
#X connect 1 1 2 0;
#X connect 1 2 3 0;
#X connect 2 0 8 0;
#X connect 3 0 9 0;
#X connect 5 0 1 0;
#X connect 6 0 7 0;
#X connect 7 0 5 0;
#X connect 8 0 4 1;
#X connect 9 0 4 2;
#X connect 10 0 31 0;
#X connect 11 0 16 0;
#X connect 12 0 13 0;
#X connect 13 0 6 0;
#X connect 14 0 17 0;
#X connect 15 0 13 0;
#X connect 16 0 14 0;
#X connect 16 0 31 1;
#X connect 17 0 12 0;
#X connect 17 1 15 0;
#X connect 18 0 22 0;
#X connect 19 0 18 0;
#X connect 19 1 20 0;
#X connect 19 2 21 0;
#X connect 20 0 24 0;
#X connect 21 0 25 0;
#X connect 24 0 22 1;
#X connect 25 0 22 2;
#X connect 26 0 23 0;
#X connect 27 0 28 0;
#X connect 30 0 29 0;
#X connect 31 0 14 0;
#X connect 32 0 33 0;
#X connect 33 0 31 1;
#X connect 33 0 34 0;
#X connect 34 0 14 0;
#X connect 35 0 16 0;
#X connect 36 0 37 0;
#X connect 37 0 19 0;
#X connect 38 0 44 0;
#X connect 40 0 73 1;
#X connect 41 0 80 0;
#X connect 42 0 73 0;
#X connect 43 0 42 0;
#X connect 44 0 54 0;
#X connect 45 0 46 0;
#X connect 46 0 39 1;
#X connect 47 0 56 0;
#X connect 48 0 50 0;
#X connect 49 0 39 0;
#X connect 50 0 58 0;
#X connect 51 0 50 0;
#X connect 52 0 51 0;
#X connect 52 0 78 0;
#X connect 53 0 54 2;
#X connect 54 0 59 0;
#X connect 55 0 79 0;
#X connect 56 0 57 0;
#X connect 57 0 48 0;
#X connect 58 0 39 0;
#X connect 59 0 60 0;
#X connect 60 0 47 0;
#X connect 61 0 62 0;
#X connect 62 0 38 0;
#X connect 63 0 38 0;
#X connect 64 0 63 0;
#X connect 65 0 66 0;
#X connect 66 0 69 0;
#X connect 67 0 43 0;
#X connect 68 0 67 0;
#X connect 69 0 43 0;
#X connect 69 1 72 0;
#X connect 70 0 71 0;
#X connect 72 0 73 1;
#X connect 73 0 40 0;
#X connect 73 0 41 0;
#X connect 74 0 75 0;
#X connect 75 0 0 0;
#X connect 76 0 77 0;
#X connect 77 0 18 0;
#X connect 78 0 50 0;
#X connect 78 0 39 0;
#X connect 79 0 50 1;
#X connect 80 0 49 0;
#X connect 80 1 81 0;
#X connect 80 2 70 0;
#X restore 20 -202 pd pause;
#X text 174 -267 i : pause;
#X text 174 -247 w : start;
#X text 174 -287 q : reset;
#N canvas 188 164 667 510 controle 0;
#X obj 155 317 s reset;
#X obj 155 110 bng 15 250 50 0 empty empty empty 17 7 0 10 -262144
-1 -1;
#X obj 211 110 bng 15 250 50 0 empty empty empty 17 7 0 10 -262144
-1 -1;
#X obj 211 317 s pause;
#X obj 267 110 bng 15 250 50 0 empty empty empty 17 7 0 10 -262144
-1 -1;
#X obj 267 317 s start;
#X obj 50 93 loadbang;
#X obj 110 -111 gemkeyboard;
#X floatatom 110 -84 5 0 0 0 - - -, f 5;
#X msg 267 291 1;
#X obj 267 194 t b b;
#X obj 322 317 s reset;
#X obj 266 -111 key;
#X floatatom 266 -84 5 0 0 0 - - -, f 5;
#X text 319 -34 i;
#X text 157 -34 i;
#X text 343 -35 w;
#X text 173 -35 w;
#X obj 266 -18 sel 113 105 119;
#X obj 110 -18 sel 38 31 52;
#X text 138 -35 q;
#X text 299 -35 q;
#X text 346 93 i : pause;
#X text 346 113 w : start;
#X text 346 73 q : reset;
#X obj 382 183 r win;
#X obj 322 239 once;
#X obj 382 224 bng 15 250 50 0 empty empty empty 17 7 0 10 -262144
-1 -1;
#X obj 318 42 r depart;
#X connect 1 0 0 0;
#X connect 2 0 3 0;
#X connect 4 0 10 0;
#X connect 6 0 1 0;
#X connect 7 0 8 0;
#X connect 8 0 19 0;
#X connect 9 0 5 0;
#X connect 10 0 9 0;
#X connect 10 1 26 0;
#X connect 12 0 13 0;
#X connect 13 0 18 0;
#X connect 18 0 1 0;
#X connect 18 1 2 0;
#X connect 18 2 4 0;
#X connect 19 0 1 0;
#X connect 19 1 2 0;
#X connect 19 2 4 0;
#X connect 25 0 27 0;
#X connect 26 0 11 0;
#X connect 27 0 26 1;
#X connect 28 0 4 0;
#X restore 20 -229 pd controle;
#X floatatom 239 -112 5 0 0 0 - - -, f 5;
#X floatatom 369 -119 5 0 0 0 - - -, f 5;
#N canvas 316 102 795 581 win 0;
#X obj 46 -210 r win;
#X obj -123 198 pix_texture;
#X obj -123 82 pix_info;
#X floatatom -33 183 5 0 0 0 - - -, f 5;
#X floatatom 26 180 5 0 0 0 - - -, f 5;
#X obj -123 291 rectangle;
#X obj -33 209 / 163;
#X obj 26 206 / 163;
#X obj -123 -28 tgl 15 0 empty empty empty 17 7 0 10 -262144 -1 -1
0 1;
#X msg -11 -45 0;
#X obj -123 55 pix_image;
#X obj 46 -153 t b f;
#X msg 46 -124 1;
#X obj -123 -68 metro 1000;
#X msg -123 -183 0;
#X obj -123 -210 r reset;
#X obj -123 27 translateXYZ 0 2 0;
#X msg 36 38 open toto.png;
#X msg 93 -116 open \$1-win.jpg;
#X obj -123 1 gemhead 80;
#X floatatom 191 151 5 0 0 0 - - -, f 5;
#X obj -123 -107 t f b b;
#X msg 147 -10 0;
#X obj 191 62 0;
#X obj 240 79 + 1;
#X obj 191 208 s reset;
#X obj 191 181 sel 30;
#X obj -215 100 loadbang;
#X msg -215 135 quality 0;
#X connect 0 0 11 0;
#X connect 1 0 5 0;
#X connect 2 0 1 0;
#X connect 2 1 3 0;
#X connect 2 2 4 0;
#X connect 3 0 6 0;
#X connect 4 0 7 0;
#X connect 6 0 5 1;
#X connect 7 0 5 2;
#X connect 8 0 19 0;
#X connect 9 0 8 0;
#X connect 10 0 2 0;
#X connect 11 0 12 0;
#X connect 11 1 18 0;
#X connect 12 0 21 0;
#X connect 13 0 8 0;
#X connect 13 0 23 0;
#X connect 14 0 21 0;
#X connect 15 0 14 0;
#X connect 16 0 10 0;
#X connect 17 0 10 0;
#X connect 18 0 10 0;
#X connect 19 0 16 0;
#X connect 20 0 26 0;
#X connect 21 0 13 0;
#X connect 21 1 9 0;
#X connect 21 2 22 0;
#X connect 22 0 23 1;
#X connect 23 0 20 0;
#X connect 23 0 24 0;
#X connect 24 0 23 1;
#X connect 26 0 25 0;
#X connect 27 0 28 0;
#X connect 28 0 1 0;
#X restore 20 -175 pd win;
#X text 195 -87 Equipe bk blanc;
#X text 377 -85 Equipe bk noir;
#X obj 176 -63 chienchien 1 -2.87;
#X obj 295 53 jauge 2.4;
#X obj 371 -63 chienchien 2 2.87;
#X msg 333 -267 80;
#X msg 301 -267 60;
#X connect 14 0 3 0;
#X connect 14 0 9 0;
#X connect 14 0 38 0;
#X connect 15 0 6 0;
#X connect 15 0 12 0;
#X connect 15 0 39 0;
#X connect 16 0 47 0;
#X connect 16 0 46 0;
#X connect 46 0 15 0;
#X connect 47 0 14 0;
