#N canvas 1120 350 1241 1162 10;
#X obj 173 285 pix_texture;
#X obj 173 169 pix_info;
#X floatatom 263 270 5 0 0 0 - - -, f 5;
#X floatatom 322 267 5 0 0 0 - - -, f 5;
#X obj 173 378 rectangle;
#X obj 173 38 alpha;
#X obj 173 9 gemhead 60;
#X floatatom 210 69 5 0 0 0 - - -, f 5;
#X floatatom 247 69 5 0 0 0 - - -, f 5;
#X obj 612 678 pix_texture;
#X obj 612 562 pix_info;
#X floatatom 702 663 5 0 0 0 - - -, f 5;
#X floatatom 761 660 5 0 0 0 - - -, f 5;
#X obj 612 771 rectangle;
#X obj 702 689 / 100;
#X obj 761 686 / 100;
#X obj 612 21 alpha;
#X floatatom 655 21 5 0 0 0 - - -, f 5;
#X floatatom 698 21 5 0 0 0 - - -, f 5;
#X obj 949 678 pix_texture;
#X obj 949 562 pix_info;
#X floatatom 1039 663 5 0 0 0 - - -, f 5;
#X floatatom 1098 660 5 0 0 0 - - -, f 5;
#X obj 949 771 rectangle;
#X obj 1039 689 / 100;
#X obj 1098 686 / 100;
#X obj 949 21 alpha;
#X floatatom 992 21 5 0 0 0 - - -, f 5;
#X floatatom 1035 21 5 0 0 0 - - -, f 5;
#X obj 612 47 translateXYZ \$2 4.25 0;
#X obj 949 47 translateXYZ \$2 5.96 0;
#X obj 657 407 sel 1 2;
#X obj 993 401 sel 1 2;
#X obj 612 192 translateXYZ 0 0 0;
#X obj 647 101 sel 1 2;
#X msg 647 128 1.7;
#X msg 666 156 -1.7;
#X obj 949 192 translateXYZ 0 0 0;
#X obj 984 101 sel 1 2;
#X msg 984 128 -1;
#X msg 1003 156 1;
#X obj 612 307 translateXYZ 0 0 0;
#X obj 949 303 translateXYZ 0 0 0;
#X obj 341 29 spigot 1;
#X obj 452 -11 r reset;
#X obj 173 95 translateXYZ \$2 0 0;
#X obj 341 -32 r shoot-\$1;
#X obj 341 52 moteur \$1;
#X obj 745 -105 r reset;
#X msg 745 -52 0;
#X obj 682 243 r win-note-\$1;
#X obj 1019 239 r win-note-\$1;
#X obj 1019 271 * -1;
#X msg 809 -52 1;
#X obj 386 -11 r start;
#X msg 452 12 0;
#X obj 809 -105 r win;
#X obj 809 -78 sel \$1;
#X obj 173 132 pix_image ch\$1-nb.jpg;
#X obj 612 525 pix_image noteN-D.jpg;
#X obj 949 522 pix_image noteN-G.jpg;
#X msg 1012 489 open noteB-D.jpg;
#X msg 993 461 open noteN-G.jpg;
#X msg 676 491 open noteB-G.jpg;
#X msg 657 463 open noteN-D.jpg;
#X obj 949 -6 gemhead 80;
#X obj 612 -6 gemhead 80;
#X obj 44 204 loadbang;
#X msg 44 239 quality 0;
#X obj 496 584 loadbang;
#X msg 496 619 quality 0;
#X obj 852 598 loadbang;
#X msg 852 633 quality 0;
#X obj 657 345 loadbang;
#X obj 993 345 loadbang;
#X obj 1050 77 loadbang;
#X obj 720 79 loadbang;
#X obj 657 375 \$1;
#X obj 993 376 \$1;
#X obj 1080 114 \$1;
#X obj 719 108 \$1;
#X obj 263 296 / 150;
#X obj 322 293 / 150;
#X obj 64 415 tgl 15 0 empty empty empty 17 7 0 10 -262144 -1 -1 0
1;
#X obj 64 977 text2d;
#X obj 326 818 - 1;
#X floatatom 277 890 5 0 0 0 - - -, f 5;
#X obj 277 751 metro 1000;
#X obj 277 716 tgl 15 0 empty empty empty 17 7 0 10 -262144 -1 -1 1
1;
#X obj 64 450 gemhead 60;
#X obj 143 971 loadbang;
#X msg 143 1006 150;
#X obj 64 843 text2d;
#X obj 88 775 loadbang;
#X floatatom 186 478 5 0 0 0 - - -, f 5;
#X obj 143 837 loadbang;
#X obj 64 703 translateXYZ 0 0.5 0;
#X obj 64 901 translateXYZ 0 -0.7 0;
#X msg 64 345 1;
#X msg 117 345 0;
#X obj 277 610 r reset;
#X msg 277 637 1;
#X msg 339 637 0;
#X obj 339 610 r start;
#X obj 277 663 t b b;
#X obj 309 944 sel 0;
#X obj 277 919 t f f;
#X obj 309 971 s depart;
#X msg 350 726 60;
#X obj 277 801 60;
#X msg -46 798 font vera.ttf;
#X floatatom 226 670 5 0 0 0 - - -, f 5;
#X obj 64 738 color 0 0 0;
#X floatatom 102 472 5 0 0 0 - - -, f 5;
#X obj 64 531 color 0 0 0;
#X floatatom 191 552 5 0 0 0 - - -, f 5;
#X floatatom 146 551 5 0 0 0 - - -, f 5;
#X msg 88 812 text \$1;
#X msg 88 936 text 100;
#X msg 143 872 150;
#X obj 392 178 / 49.5;
#X obj 392 227 int;
#X obj 392 154 * 1000;
#X obj 64 318 r start;
#X obj 117 318 r reset;
#X obj 392 203 + 0.5;
#X obj 401 338 loadbang;
#X obj 398 405 \$1;
#X obj 401 360 t b b;
#X obj 64 492 translateXYZ 0 5.5 0;
#X obj 63 571 rectangle 1 0.05;
#X msg 420 455 6.2;
#X obj 398 430 sel 1 2;
#X msg 385 455 -6.2;
#X msg 303 530 1 1 1;
#X obj 477 153 metro 1000;
#X msg 385 8 1;
#X obj 478 189 f;
#X obj 506 189 + 1;
#X obj 477 130 tgl 15 0 empty empty empty 17 7 0 10 -262144 -1 -1 0
1;
#X obj 408 252 change;
#X floatatom 478 214 5 0 0 0 - - -, f 5;
#X obj 478 237 sel 60;
#X obj 444 87 t f b;
#X msg 444 130 0;
#X obj 478 281 s reset;
#X obj 478 259 bng 15 250 50 0 empty empty empty 17 7 0 10 -262144
-1 -1;
#X obj 408 275 t b b;
#X obj 408 307 s initrerest;
#X obj 493 86 r initrerest;
#X obj 99 289 loadbang;
#X floatatom 66 51 5 0 0 0 - - -, f 5;
#X floatatom 103 51 5 0 0 0 - - -, f 5;
#X floatatom 129 33 5 0 0 0 - - -, f 5;
#X obj 32 104 pix_flip;
#X msg 59 -33 none;
#X msg 59 -13 horizontal;
#X obj 76 -75 sel 0 1;
#X obj 77 -99 tgl 15 0 empty empty empty 17 7 0 10 -262144 -1 -1 1
1;
#X obj 247 -60 line;
#X obj 247 -100 pack f f;
#X msg 247 -80 \$1 \$2;
#X obj 247 -147 / 100;
#X obj 247 -169 random 80;
#X obj 247 -225 t b b;
#X obj 247 -247 bng 15 250 50 0 empty empty empty 17 7 0 10 -262144
-1 -1;
#X obj 311 -225 t b b;
#X obj 311 -244 bng 15 250 50 0 empty empty empty 17 7 0 10 -262144
-1 -1;
#X obj 247 -124 t f f;
#X obj 316 99 t f f;
#X obj 247 -32 t f f;
#X obj 342 -117 f;
#X obj 279 -5 sel 100;
#X msg 310 -204 0;
#X obj 279 20 delay 1;
#X obj 247 -294 r cptnext;
#X obj 247 -271 t b;
#X obj 320 -168 random 400;
#X obj 320 -148 + 100;
#X connect 0 0 4 0;
#X connect 1 0 0 0;
#X connect 1 1 2 0;
#X connect 1 2 3 0;
#X connect 2 0 81 0;
#X connect 3 0 82 0;
#X connect 5 0 45 0;
#X connect 6 0 5 0;
#X connect 7 0 45 1;
#X connect 8 0 45 2;
#X connect 9 0 13 0;
#X connect 10 0 9 0;
#X connect 10 1 11 0;
#X connect 10 2 12 0;
#X connect 11 0 14 0;
#X connect 12 0 15 0;
#X connect 14 0 13 1;
#X connect 15 0 13 2;
#X connect 16 0 29 0;
#X connect 17 0 29 1;
#X connect 18 0 29 2;
#X connect 19 0 23 0;
#X connect 20 0 19 0;
#X connect 20 1 21 0;
#X connect 20 2 22 0;
#X connect 21 0 24 0;
#X connect 22 0 25 0;
#X connect 24 0 23 1;
#X connect 25 0 23 2;
#X connect 26 0 30 0;
#X connect 27 0 30 1;
#X connect 28 0 30 2;
#X connect 29 0 33 0;
#X connect 30 0 37 0;
#X connect 31 0 64 0;
#X connect 31 1 63 0;
#X connect 32 0 62 0;
#X connect 32 1 61 0;
#X connect 33 0 41 0;
#X connect 34 0 35 0;
#X connect 34 1 36 0;
#X connect 35 0 33 1;
#X connect 36 0 33 1;
#X connect 37 0 42 0;
#X connect 38 0 39 0;
#X connect 38 1 40 0;
#X connect 39 0 37 1;
#X connect 40 0 37 1;
#X connect 41 0 59 0;
#X connect 42 0 60 0;
#X connect 43 0 47 0;
#X connect 44 0 55 0;
#X connect 45 0 58 0;
#X connect 46 0 43 0;
#X connect 47 0 8 0;
#X connect 47 0 122 0;
#X connect 48 0 49 0;
#X connect 49 0 65 0;
#X connect 49 0 66 0;
#X connect 50 0 41 2;
#X connect 51 0 52 0;
#X connect 52 0 42 2;
#X connect 53 0 65 0;
#X connect 53 0 66 0;
#X connect 54 0 136 0;
#X connect 55 0 43 1;
#X connect 55 0 143 0;
#X connect 56 0 57 0;
#X connect 57 0 53 0;
#X connect 58 0 154 0;
#X connect 59 0 10 0;
#X connect 60 0 20 0;
#X connect 61 0 60 0;
#X connect 62 0 60 0;
#X connect 63 0 59 0;
#X connect 64 0 59 0;
#X connect 65 0 26 0;
#X connect 66 0 16 0;
#X connect 67 0 68 0;
#X connect 68 0 0 0;
#X connect 69 0 70 0;
#X connect 70 0 9 0;
#X connect 71 0 72 0;
#X connect 72 0 19 0;
#X connect 73 0 77 0;
#X connect 74 0 78 0;
#X connect 75 0 79 0;
#X connect 76 0 80 0;
#X connect 77 0 31 0;
#X connect 78 0 32 0;
#X connect 79 0 38 0;
#X connect 80 0 34 0;
#X connect 81 0 4 1;
#X connect 82 0 4 2;
#X connect 83 0 89 0;
#X connect 85 0 109 1;
#X connect 86 0 106 0;
#X connect 87 0 109 0;
#X connect 88 0 87 0;
#X connect 89 0 129 0;
#X connect 90 0 91 0;
#X connect 90 0 118 0;
#X connect 91 0 84 1;
#X connect 92 0 97 0;
#X connect 93 0 117 0;
#X connect 93 0 110 0;
#X connect 94 0 129 2;
#X connect 95 0 119 0;
#X connect 96 0 112 0;
#X connect 97 0 84 0;
#X connect 98 0 83 0;
#X connect 99 0 83 0;
#X connect 100 0 101 0;
#X connect 101 0 104 0;
#X connect 102 0 88 0;
#X connect 103 0 102 0;
#X connect 104 0 88 0;
#X connect 104 1 108 0;
#X connect 105 0 107 0;
#X connect 106 1 105 0;
#X connect 108 0 109 1;
#X connect 109 0 85 0;
#X connect 109 0 86 0;
#X connect 110 0 92 0;
#X connect 110 0 84 0;
#X connect 111 0 96 1;
#X connect 112 0 92 0;
#X connect 113 0 129 1;
#X connect 114 0 130 0;
#X connect 115 0 130 2;
#X connect 116 0 130 1;
#X connect 117 0 92 0;
#X connect 118 0 84 0;
#X connect 119 0 92 1;
#X connect 120 0 125 0;
#X connect 121 0 117 0;
#X connect 121 0 140 0;
#X connect 122 0 120 0;
#X connect 123 0 98 0;
#X connect 124 0 99 0;
#X connect 125 0 121 0;
#X connect 126 0 128 0;
#X connect 127 0 132 0;
#X connect 128 1 127 0;
#X connect 129 0 114 0;
#X connect 130 0 96 0;
#X connect 131 0 113 0;
#X connect 132 0 133 0;
#X connect 132 0 134 0;
#X connect 132 1 131 0;
#X connect 133 0 113 0;
#X connect 134 0 112 1;
#X connect 134 0 114 1;
#X connect 135 0 137 0;
#X connect 136 0 43 1;
#X connect 136 0 143 0;
#X connect 137 0 141 0;
#X connect 137 0 138 0;
#X connect 138 0 137 1;
#X connect 139 0 135 0;
#X connect 140 0 147 0;
#X connect 141 0 142 0;
#X connect 142 0 146 0;
#X connect 143 0 139 0;
#X connect 143 1 144 0;
#X connect 144 0 137 1;
#X connect 146 0 145 0;
#X connect 147 0 148 0;
#X connect 147 1 158 0;
#X connect 149 0 144 0;
#X connect 150 0 99 0;
#X connect 151 0 154 1;
#X connect 154 0 1 0;
#X connect 155 0 154 0;
#X connect 156 0 154 0;
#X connect 157 0 155 0;
#X connect 157 1 156 0;
#X connect 158 0 157 0;
#X connect 159 0 170 0;
#X connect 160 0 161 0;
#X connect 161 0 159 0;
#X connect 162 0 168 0;
#X connect 163 0 162 0;
#X connect 164 0 163 0;
#X connect 164 0 158 0;
#X connect 164 1 177 0;
#X connect 165 0 164 0;
#X connect 166 0 173 0;
#X connect 166 1 171 0;
#X connect 167 0 166 0;
#X connect 168 0 160 0;
#X connect 168 1 172 1;
#X connect 170 0 8 0;
#X connect 170 1 172 0;
#X connect 171 0 160 1;
#X connect 172 0 174 0;
#X connect 173 0 160 0;
#X connect 174 0 167 0;
#X connect 175 0 176 0;
#X connect 176 0 165 0;
#X connect 177 0 178 0;
#X connect 178 0 171 0;
