#N canvas 253 53 1024 686 10;
#X obj 172 59 r y-min-\$1;
#X obj 193 650 outlet;
#X obj 311 -59 inlet;
#X obj 332 727 s shoot-\$1;
#X floatatom 157 159 5 0 0 0 - - -;
#X obj 468 115 >;
#X obj 483 59 r y-max-\$1;
#X floatatom 468 159 5 0 0 0 - - -;
#X obj 315 260 +;
#X obj 362 224 t b f;
#X obj 157 112 >;
#X obj 471 650 outlet;
#X msg 332 494 0;
#X obj 332 669 metro 0;
#X obj 193 519 t b f;
#X msg 193 575 1;
#X obj 471 517 t b f;
#X msg 471 573 1;
#X obj 268 477 r reset;
#X obj 379 477 r pause;
#X obj 315 288 change;
#X msg 231 574 0;
#X obj 315 324 t b f;
#X obj 315 388 f;
#X obj 315 355 del 300;
#X obj 315 437 sel 1 0 2;
#X msg 471 484 500;
#X msg 193 482 1000;
#X connect 0 0 10 1;
#X connect 2 0 5 0;
#X connect 2 0 10 0;
#X connect 4 0 8 0;
#X connect 5 0 7 0;
#X connect 6 0 5 1;
#X connect 7 0 9 0;
#X connect 8 0 20 0;
#X connect 9 0 8 0;
#X connect 9 1 8 1;
#X connect 10 0 4 0;
#X connect 12 0 1 0;
#X connect 12 0 11 0;
#X connect 12 0 13 0;
#X connect 13 0 3 0;
#X connect 14 0 15 0;
#X connect 14 0 21 0;
#X connect 14 1 13 1;
#X connect 15 0 1 0;
#X connect 15 0 13 0;
#X connect 16 0 17 0;
#X connect 16 1 13 1;
#X connect 17 0 11 0;
#X connect 17 0 13 0;
#X connect 17 0 1 0;
#X connect 18 0 12 0;
#X connect 19 0 12 0;
#X connect 20 0 22 0;
#X connect 21 0 11 0;
#X connect 22 0 24 0;
#X connect 22 1 23 1;
#X connect 23 0 25 0;
#X connect 24 0 23 0;
#X connect 25 0 27 0;
#X connect 25 1 12 0;
#X connect 25 2 26 0;
#X connect 26 0 16 0;
#X connect 27 0 14 0;
