#N canvas 67 649 1241 654 10;
#X obj 173 285 pix_texture;
#X obj 44 268 init quality 0;
#X obj 173 169 pix_info;
#X floatatom 263 270 5 0 0 0 - - -;
#X floatatom 322 267 5 0 0 0 - - -;
#X obj 173 378 rectangle;
#X obj 263 296 / 100;
#X obj 322 293 / 100;
#X obj 173 38 alpha;
#X obj 173 9 gemhead 60;
#X floatatom 210 69 5 0 0 0 - - -;
#X floatatom 247 69 5 0 0 0 - - -;
#X obj 612 678 pix_texture;
#X obj 483 661 init quality 0;
#X obj 612 562 pix_info;
#X floatatom 702 663 5 0 0 0 - - -;
#X floatatom 761 660 5 0 0 0 - - -;
#X obj 612 771 rectangle;
#X obj 702 689 / 100;
#X obj 761 686 / 100;
#X obj 612 21 alpha;
#X floatatom 655 21 5 0 0 0 - - -;
#X floatatom 698 21 5 0 0 0 - - -;
#X obj 949 678 pix_texture;
#X obj 820 661 init quality 0;
#X obj 949 562 pix_info;
#X floatatom 1039 663 5 0 0 0 - - -;
#X floatatom 1098 660 5 0 0 0 - - -;
#X obj 949 771 rectangle;
#X obj 1039 689 / 100;
#X obj 1098 686 / 100;
#X obj 949 21 alpha;
#X floatatom 992 21 5 0 0 0 - - -;
#X floatatom 1035 21 5 0 0 0 - - -;
#X obj 612 47 translateXYZ \$2 4.25 0;
#X obj 949 47 translateXYZ \$2 5.96 0;
#X obj 657 375 init \$1;
#X obj 657 407 sel 1 2;
#X obj 993 369 init \$1;
#X obj 993 401 sel 1 2;
#X obj 612 192 translateXYZ 0 0 0;
#X obj 647 101 sel 1 2;
#X obj 647 74 init \$1;
#X obj 949 192 translateXYZ 0 0 0;
#X obj 984 101 sel 1 2;
#X obj 984 74 init \$1;
#X obj 612 307 translateXYZ 0 0 0;
#X obj 949 303 translateXYZ 0 0 0;
#X obj 341 29 spigot 1;
#X obj 452 -11 r reset;
#X obj 173 95 translateXYZ \$2 0 0;
#X obj 341 -32 r shoot-\$1;
#X obj 341 52 moteur \$1;
#X obj 745 -105 r reset;
#X msg 745 -52 0;
#X obj 682 243 r win-note-\$1;
#X obj 1019 239 r win-note-\$1;
#X obj 1019 271 * -1;
#X msg 809 -52 1;
#X obj 386 -11 r start;
#X msg 452 12 0;
#X obj 809 -105 r win;
#X obj 809 -78 sel \$1;
#X obj 173 132 pix_image ch\$1-nb.jpg;
#X obj 612 525 pix_image noteN-D.jpg;
#X msg 676 491 open noteB-G.jpg;
#X msg 657 463 open noteN-D.jpg;
#X msg 993 461 open noteN-G.jpg;
#X msg 1012 489 open noteB-D.jpg;
#X obj 949 522 pix_image noteN-G.jpg;
#X obj 612 -6 gemhead 90;
#X obj 949 -6 gemhead 90;
#X floatatom 1037 135 5 0 0 0 - - -;
#X msg 984 128 -1.1;
#X msg 1003 156 1.1;
#X floatatom 746 147 5 0 0 0 - - -;
#X msg 647 128 1.85;
#X msg 666 156 -1.85;
#X connect 0 0 5 0;
#X connect 1 0 0 0;
#X connect 2 0 0 0;
#X connect 2 1 3 0;
#X connect 2 2 4 0;
#X connect 3 0 6 0;
#X connect 4 0 7 0;
#X connect 6 0 5 1;
#X connect 7 0 5 2;
#X connect 8 0 50 0;
#X connect 9 0 8 0;
#X connect 10 0 50 1;
#X connect 11 0 50 2;
#X connect 12 0 17 0;
#X connect 13 0 12 0;
#X connect 14 0 12 0;
#X connect 14 1 15 0;
#X connect 14 2 16 0;
#X connect 15 0 18 0;
#X connect 16 0 19 0;
#X connect 18 0 17 1;
#X connect 19 0 17 2;
#X connect 20 0 34 0;
#X connect 21 0 34 1;
#X connect 22 0 34 2;
#X connect 23 0 28 0;
#X connect 24 0 23 0;
#X connect 25 0 23 0;
#X connect 25 1 26 0;
#X connect 25 2 27 0;
#X connect 26 0 29 0;
#X connect 27 0 30 0;
#X connect 29 0 28 1;
#X connect 30 0 28 2;
#X connect 31 0 35 0;
#X connect 32 0 35 1;
#X connect 33 0 35 2;
#X connect 34 0 40 0;
#X connect 35 0 43 0;
#X connect 36 0 37 0;
#X connect 37 0 66 0;
#X connect 37 1 65 0;
#X connect 38 0 39 0;
#X connect 39 0 67 0;
#X connect 39 1 68 0;
#X connect 40 0 46 0;
#X connect 41 0 76 0;
#X connect 41 1 77 0;
#X connect 42 0 41 0;
#X connect 43 0 47 0;
#X connect 44 0 73 0;
#X connect 44 1 74 0;
#X connect 45 0 44 0;
#X connect 46 0 64 0;
#X connect 47 0 69 0;
#X connect 48 0 52 0;
#X connect 49 0 60 0;
#X connect 50 0 63 0;
#X connect 51 0 48 0;
#X connect 52 0 11 0;
#X connect 53 0 54 0;
#X connect 54 0 70 0;
#X connect 54 0 71 0;
#X connect 55 0 46 2;
#X connect 56 0 57 0;
#X connect 57 0 47 2;
#X connect 58 0 70 0;
#X connect 58 0 71 0;
#X connect 59 0 48 1;
#X connect 60 0 48 1;
#X connect 61 0 62 0;
#X connect 62 0 58 0;
#X connect 63 0 2 0;
#X connect 64 0 14 0;
#X connect 65 0 64 0;
#X connect 66 0 64 0;
#X connect 67 0 69 0;
#X connect 68 0 69 0;
#X connect 69 0 25 0;
#X connect 70 0 20 0;
#X connect 71 0 31 0;
#X connect 73 0 43 1;
#X connect 74 0 43 1;
#X connect 75 0 40 1;
#X connect 76 0 40 1;
#X connect 77 0 40 1;
