#N canvas 23 78 1241 654 10;
#X obj 173 285 pix_texture;
#X obj 44 268 init quality 0;
#X obj 173 169 pix_info;
#X floatatom 263 270 5 0 0 0 - - -;
#X floatatom 322 267 5 0 0 0 - - -;
#X obj 173 378 rectangle;
#X obj 263 296 / 100;
#X obj 322 293 / 100;
#X obj 173 38 alpha;
#X obj 173 9 gemhead 60;
#X floatatom 216 69 5 0 0 0 - - -;
#X floatatom 259 69 5 0 0 0 - - -;
#X obj 173 132 pix_image ch\$1-nb.png;
#X obj 612 623 pix_texture;
#X obj 483 606 init quality 0;
#X obj 612 507 pix_info;
#X floatatom 702 608 5 0 0 0 - - -;
#X floatatom 761 605 5 0 0 0 - - -;
#X obj 612 716 rectangle;
#X obj 702 634 / 100;
#X obj 761 631 / 100;
#X obj 612 103 alpha;
#X obj 612 -6 gemhead 60;
#X floatatom 655 134 5 0 0 0 - - -;
#X floatatom 698 134 5 0 0 0 - - -;
#X obj 173 95 translateXYZ \$2 4.93 0;
#X obj 949 623 pix_texture;
#X obj 820 606 init quality 0;
#X obj 949 507 pix_info;
#X floatatom 1039 608 5 0 0 0 - - -;
#X floatatom 1098 605 5 0 0 0 - - -;
#X obj 949 716 rectangle;
#X obj 1039 634 / 100;
#X obj 1098 631 / 100;
#X obj 949 106 alpha;
#X obj 949 -3 gemhead 60;
#X floatatom 992 137 5 0 0 0 - - -;
#X floatatom 1035 137 5 0 0 0 - - -;
#X obj 698 -47 init \$2;
#X obj 612 160 translateXYZ \$2 4.25 0;
#X obj 949 163 translateXYZ \$2 5.96 0;
#X obj 612 470 pix_image noteN-D.png;
#X obj 949 470 pix_image noteN-G.png;
#X msg 657 408 open noteN-D.png;
#X msg 676 436 open noteB-G.png;
#X msg 993 409 open noteN-G.png;
#X msg 1012 437 open noteB-D.png;
#X obj 657 320 init \$1;
#X obj 657 352 sel 1 2;
#X obj 993 317 init \$1;
#X obj 993 349 sel 1 2;
#X obj 751 25 sel 1 2;
#X msg 751 83 1.7;
#X msg 770 111 -1.7;
#X obj 698 100 +;
#X obj 1093 21 sel 1 2;
#X msg 1093 79 -1;
#X msg 1112 107 1;
#X obj 1042 96 +;
#X obj 751 -7 \$1;
#X obj 1093 -11 \$1;
#X obj 698 -24 t f b;
#X obj 1042 -51 init \$2;
#X obj 1042 -28 t f b;
#X obj 612 231 translateXYZ 0 0 0;
#X obj 820 149 sel 1 2;
#X msg 820 207 1.7;
#X msg 839 235 -1.7;
#X obj 820 117 init \$1;
#X connect 0 0 5 0;
#X connect 1 0 0 0;
#X connect 2 0 0 0;
#X connect 2 1 3 0;
#X connect 2 2 4 0;
#X connect 3 0 6 0;
#X connect 4 0 7 0;
#X connect 6 0 5 1;
#X connect 7 0 5 2;
#X connect 8 0 25 0;
#X connect 9 0 8 0;
#X connect 10 0 25 1;
#X connect 11 0 25 2;
#X connect 12 0 2 0;
#X connect 13 0 18 0;
#X connect 14 0 13 0;
#X connect 15 0 13 0;
#X connect 15 1 16 0;
#X connect 15 2 17 0;
#X connect 16 0 19 0;
#X connect 17 0 20 0;
#X connect 19 0 18 1;
#X connect 20 0 18 2;
#X connect 21 0 39 0;
#X connect 22 0 21 0;
#X connect 23 0 39 1;
#X connect 24 0 39 2;
#X connect 25 0 12 0;
#X connect 26 0 31 0;
#X connect 27 0 26 0;
#X connect 28 0 26 0;
#X connect 28 1 29 0;
#X connect 28 2 30 0;
#X connect 29 0 32 0;
#X connect 30 0 33 0;
#X connect 32 0 31 1;
#X connect 33 0 31 2;
#X connect 34 0 40 0;
#X connect 35 0 34 0;
#X connect 36 0 40 1;
#X connect 37 0 40 2;
#X connect 38 0 61 0;
#X connect 39 0 64 0;
#X connect 40 0 42 0;
#X connect 41 0 15 0;
#X connect 42 0 28 0;
#X connect 43 0 41 0;
#X connect 44 0 41 0;
#X connect 45 0 42 0;
#X connect 46 0 42 0;
#X connect 47 0 48 0;
#X connect 48 0 43 0;
#X connect 48 1 44 0;
#X connect 49 0 50 0;
#X connect 50 0 45 0;
#X connect 50 1 46 0;
#X connect 51 0 52 0;
#X connect 51 1 53 0;
#X connect 52 0 54 1;
#X connect 53 0 54 1;
#X connect 54 0 39 1;
#X connect 55 0 56 0;
#X connect 55 1 57 0;
#X connect 56 0 58 1;
#X connect 57 0 58 1;
#X connect 58 0 40 1;
#X connect 59 0 51 0;
#X connect 60 0 55 0;
#X connect 61 0 54 0;
#X connect 62 0 63 0;
#X connect 63 0 58 0;
#X connect 63 1 60 0;
#X connect 64 0 41 0;
#X connect 65 0 66 0;
#X connect 65 1 67 0;
#X connect 66 0 64 1;
#X connect 67 0 64 1;
#X connect 68 0 65 0;
