#N canvas 3 78 1009 686 10;
#X obj 134 292 gemhead;
#X obj 134 127 gemhead;
#X obj 608 317 gemhead;
#X obj 220 49 r y-max-1;
#X obj 134 512 gemhead;
#X obj 220 434 r y-min-1;
#X obj 608 127 gemhead;
#X obj 608 530 gemhead;
#X obj 690 49 r y-max-2;
#X obj 690 433 r y-min-2;
#X obj 224 286 i;
#X obj 694 289 i;
#X obj 134 156 color 0 0 0;
#X obj 134 319 color 0 0 0;
#X obj 134 541 color 0 0 0;
#X obj 608 185 translateXYZ 5.18 3 0;
#X obj 608 568 translateXYZ 5.18 3 0;
#X obj 134 185 translateXYZ -5.18 3 0;
#X obj 134 570 translateXYZ -5.18 3 0;
#X obj 311 35 \$1;
#X obj 311 58 - 2;
#X obj 327 2 loadbang;
#X obj 342 34 \$1;
#X obj 342 57 + 2;
#X obj 781 35 \$1;
#X obj 781 58 - 2;
#X obj 797 2 loadbang;
#X obj 812 34 \$1;
#X obj 812 57 + 2;
#X obj 785 252 \$1;
#X obj 785 275 - 2;
#X obj 801 219 loadbang;
#X obj 816 251 \$1;
#X obj 816 274 + 2;
#X obj 315 252 \$1;
#X obj 315 275 - 2;
#X obj 331 219 loadbang;
#X obj 346 251 \$1;
#X obj 346 274 + 2;
#X obj 311 410 \$1;
#X obj 311 433 - 2;
#X obj 327 377 loadbang;
#X obj 342 409 \$1;
#X obj 342 432 + 2;
#X obj 781 410 \$1;
#X obj 781 433 - 2;
#X obj 797 377 loadbang;
#X obj 812 409 \$1;
#X obj 812 432 + 2;
#X obj 134 350 translateXYZ -5.075 3 0;
#X obj 608 355 translateXYZ 5.075 3 0;
#X obj 694 315 maxlib/scale 30 100 -1.2 3;
#X obj 224 311 maxlib/scale 30 100 -1.2 3;
#X obj 220 91 maxlib/scale 30 100 -1.2 3;
#X obj 690 91 maxlib/scale 30 100 -1.2 3;
#X obj 690 475 maxlib/scale 30 100 -1.5 3;
#X obj 220 476 maxlib/scale 30 100 -1.5 3;
#X obj 134 217 rectangle 0.1 0.03;
#X obj 134 602 rectangle 0.1 0.03;
#X obj 134 382 rectangle 0.2 0.03;
#X obj 608 217 rectangle 0.1 0.03;
#X obj 608 387 rectangle 0.2 0.03;
#X obj 608 600 rectangle 0.1 0.03;
#X obj 224 263 r y-in-1;
#X obj 694 266 r y-in-2;
#X connect 0 0 13 0;
#X connect 1 0 12 0;
#X connect 2 0 50 0;
#X connect 3 0 53 0;
#X connect 4 0 14 0;
#X connect 5 0 56 0;
#X connect 6 0 15 0;
#X connect 7 0 16 0;
#X connect 8 0 54 0;
#X connect 9 0 55 0;
#X connect 10 0 52 0;
#X connect 11 0 51 0;
#X connect 12 0 17 0;
#X connect 13 0 49 0;
#X connect 14 0 18 0;
#X connect 15 0 60 0;
#X connect 16 0 62 0;
#X connect 17 0 57 0;
#X connect 18 0 58 0;
#X connect 19 0 20 0;
#X connect 20 0 53 3;
#X connect 21 0 22 0;
#X connect 21 0 19 0;
#X connect 22 0 23 0;
#X connect 23 0 53 4;
#X connect 24 0 25 0;
#X connect 25 0 54 3;
#X connect 26 0 27 0;
#X connect 26 0 24 0;
#X connect 27 0 28 0;
#X connect 28 0 54 4;
#X connect 29 0 30 0;
#X connect 30 0 51 3;
#X connect 31 0 32 0;
#X connect 31 0 29 0;
#X connect 32 0 33 0;
#X connect 33 0 51 4;
#X connect 34 0 35 0;
#X connect 35 0 52 3;
#X connect 36 0 37 0;
#X connect 36 0 34 0;
#X connect 37 0 38 0;
#X connect 38 0 52 4;
#X connect 39 0 40 0;
#X connect 40 0 56 3;
#X connect 41 0 42 0;
#X connect 41 0 39 0;
#X connect 42 0 43 0;
#X connect 43 0 56 4;
#X connect 44 0 45 0;
#X connect 45 0 55 3;
#X connect 46 0 47 0;
#X connect 46 0 44 0;
#X connect 47 0 48 0;
#X connect 48 0 55 4;
#X connect 49 0 59 0;
#X connect 50 0 61 0;
#X connect 51 0 50 2;
#X connect 52 0 49 2;
#X connect 53 0 17 2;
#X connect 54 0 15 2;
#X connect 55 0 16 2;
#X connect 56 0 18 2;
#X connect 63 0 10 0;
#X connect 64 0 11 0;
