#N canvas 1188 226 587 571 10;
#N canvas 3 241 685 361 GEM 0;
#X obj 44 216 gemwin;
#X obj 44 113 sel 1 0;
#X msg 63 180 0 \, destroy;
#X obj 44 85 tgl 15 0 empty empty empty 17 7 0 10 -262144 -1 -1 0 1
;
#X obj 44 27 gemkeyboard;
#X obj 44 54 sel 9;
#X obj 123 27 key;
#X obj 123 68 sel 27;
#X text 207 231 default view 0 0 4;
#X msg 152 185 border 1 \, offset 0 0 \, view 0 0 4 \, dimen 960 540
\, color 0 1 0 \, create \, 1;
#X msg 243 122 border 0 \, view 0 2.66 4 \, offset 1366 0 \, dimen
1024 768 \, color 1 1 1 \, create \, 1;
#X connect 1 0 9 0;
#X connect 1 1 2 0;
#X connect 2 0 0 0;
#X connect 3 0 1 0;
#X connect 4 0 5 0;
#X connect 5 0 3 0;
#X connect 6 0 7 0;
#X connect 7 0 3 0;
#X connect 9 0 0 0;
#X restore 20 -310 pd GEM;
#N canvas 804 144 1061 644 decors 0;
#X obj 748 387 pix_texture;
#X obj 748 477 rectangle;
#X obj 748 236 alpha;
#X obj 748 338 pix_info;
#X floatatom 841 400 5 0 0 0 - - -;
#X floatatom 900 397 5 0 0 0 - - -;
#X obj 748 300 pix_image fondconcoursedecri1920.png;
#X obj 748 273 translateXYZ 0 0 0;
#X floatatom 948 475 5 0 0 0 - - -;
#X obj 841 426 / 269;
#X obj 900 423 / 269;
#X obj 748 196 gemhead 40;
#X obj 133 167 gemhead 50;
#X floatatom 200 366 5 0 0 0 - - -;
#X obj 133 303 rectangle 3.557 4;
#X obj 133 194 translateXYZ 3.557 0 0;
#X obj 134 264 alpha;
#X obj 133 221 color 1 0 0 0.5;
#X obj 631 369 init quality 1;
#X obj 306 171 gemhead 50;
#X floatatom 373 370 5 0 0 0 - - -;
#X obj 306 307 rectangle 3.557 4;
#X obj 307 268 alpha;
#X obj 306 198 translateXYZ -3.557 0 0;
#X obj 306 225 color 0 1 0 0.5;
#X connect 0 0 1 0;
#X connect 2 0 7 0;
#X connect 3 0 0 0;
#X connect 3 1 4 0;
#X connect 3 2 5 0;
#X connect 4 0 9 0;
#X connect 5 0 10 0;
#X connect 6 0 3 0;
#X connect 7 0 6 0;
#X connect 8 0 9 1;
#X connect 8 0 10 1;
#X connect 9 0 1 1;
#X connect 10 0 1 2;
#X connect 11 0 2 0;
#X connect 12 0 15 0;
#X connect 13 0 14 1;
#X connect 15 0 17 0;
#X connect 16 0 14 0;
#X connect 17 0 16 0;
#X connect 18 0 0 0;
#X connect 19 0 23 0;
#X connect 20 0 21 1;
#X connect 22 0 21 0;
#X connect 23 0 24 0;
#X connect 24 0 22 0;
#X restore 20 -283 pd decors;
#X obj 215 -32 vsl 8 200 0 100 0 0 y-in-1 son-in-vu-1 empty 0 -8 0
8 -228992 -1 -1 7960 1;
#X obj 224 -32 vsl 10 200 0 100 0 0 y-max-1 empty empty 0 -8 0 8 -257472
-1 -1 15400 1;
#X floatatom 217 182 5 0 0 0 - y-max-1 -;
#X floatatom 180 182 3 0 0 0 - y-in-1 son-in-1;
#X obj 234 -32 vsl 10 200 0 100 0 0 y-min-1 empty empty 0 -8 0 8 -257472
-1 -1 12600 1;
#X floatatom 255 182 5 0 0 0 - y-min-1 -;
#X obj 408 -32 vsl 8 200 0 100 0 0 y-in-2 son-in-vu-2 empty 0 -8 0
8 -228992 -1 -1 7960 1;
#X obj 417 -32 vsl 10 200 0 100 0 0 y-max-2 empty empty 0 -8 0 8 -257472
-1 -1 15400 1;
#X floatatom 410 182 5 0 0 0 - y-max-2 -;
#X floatatom 373 182 3 0 0 0 - y-in-2 son-in-2;
#X obj 427 -32 vsl 10 200 0 100 0 0 y-min-2 empty empty 0 -8 0 8 -257472
-1 -1 12600 1;
#X floatatom 448 182 5 0 0 0 - y-min-2 -;
#X obj 312 -237 vsl 10 200 0 100 0 0 empty empty empty 0 -8 0 8 -257472
-1 -1 15430 1;
#X obj 322 -237 vsl 10 200 0 100 0 0 empty empty empty 0 -8 0 8 -257472
-1 -1 12600 1;
#X obj 317 -300 loadbang;
#X text 262 -11 <---- limite A ---->;
#X text 262 20 <---- limite B ---->;
#X text 341 -210 Pour regler les jauges des;
#X text 341 -195 deux équipes en même temps;
#X text 370 -268 Initialisation des jauges;
#X text 224 200 A;
#X text 264 200 B;
#X text 180 200 Niv;
#X text 418 199 A;
#X text 458 199 B;
#X text 374 199 Niv;
#X text 195 -87 Equipe noire;
#X text 377 -85 Equipe blanche;
#N canvas 510 173 853 446 son-in 0;
#X obj 439 245 tgl 10 0 empty empty empty 0 -6 0 8 -262144 -1 -1 0
1;
#X obj 160 255 spigot 0;
#X obj 455 245 tgl 10 0 empty empty empty 0 -6 0 8 -262144 -1 -1 0
1;
#X obj 613 255 spigot 0;
#X obj 205 313 s son-in-vu-1;
#X obj 160 218 i;
#X obj 613 207 i;
#X obj 160 60 adc~ 1;
#X obj 613 75 adc~ 2;
#X obj 613 177 env~ 8192;
#X obj 160 128 hip~ 5;
#X obj 160 177 env~ 8192;
#X obj 614 132 hip~ 5;
#X obj 412 60 r pause;
#X obj 412 173 t b f;
#X msg 479 188 1;
#X obj 160 282 moses 40;
#X obj 613 289 moses 40;
#X obj 658 320 s son-in-vu-2;
#X msg 126 299 40;
#X msg 412 385 40;
#X msg 579 306 40;
#X obj 479 90 r reset;
#X obj 289 121 r start;
#X obj 412 138 tgl 15 0 empty empty empty 17 7 0 10 -262144 -1 -1 0
1;
#X msg 426 107 set 1;
#X obj 529 90 r win;
#X msg 529 121 0;
#X connect 0 0 1 1;
#X connect 1 0 16 0;
#X connect 2 0 3 1;
#X connect 3 0 17 0;
#X connect 5 0 1 0;
#X connect 6 0 3 0;
#X connect 7 0 10 0;
#X connect 8 0 12 0;
#X connect 9 0 6 0;
#X connect 10 0 11 0;
#X connect 11 0 5 0;
#X connect 12 0 9 0;
#X connect 13 0 24 0;
#X connect 14 0 20 0;
#X connect 14 1 0 0;
#X connect 14 1 2 0;
#X connect 15 0 0 0;
#X connect 15 0 2 0;
#X connect 16 0 19 0;
#X connect 16 1 4 0;
#X connect 17 0 21 0;
#X connect 17 1 18 0;
#X connect 19 0 16 0;
#X connect 20 0 4 0;
#X connect 20 0 18 0;
#X connect 21 0 17 0;
#X connect 22 0 25 0;
#X connect 22 0 15 0;
#X connect 23 0 24 0;
#X connect 24 0 14 0;
#X connect 25 0 24 0;
#X connect 26 0 27 0;
#X connect 27 0 24 0;
#X coords 0 -1 1 1 100 19 1 370 240;
#X restore 276 108 pd son-in;
#X text 276 87 Ouvre les micros;
#N canvas 479 366 1270 686 gestionduson 0;
#X msg 205 463 text GO !;
#X msg 877 400 text GO !;
#X obj 860 281 gemhead;
#X obj 877 375 loadbang;
#X obj 205 436 loadbang;
#X obj 270 125 gemhead;
#X obj 287 217 loadbang;
#X msg 287 244 text GO GO !;
#X obj 941 121 gemhead;
#X obj 958 203 loadbang;
#X msg 958 230 text GO GO !;
#X obj 449 -81 loadbang;
#X msg 449 -48 \; pd dsp 1 \;;
#X text 188 14 Equipe noire;
#X text 860 16 Equipe blanche;
#X obj 189 295 gemhead;
#X obj 189 72 gest-son-max 1;
#X obj 104 108 init 0;
#X obj 780 104 init 0;
#X obj 189 45 r y-in-1;
#X obj 860 41 r y-in-2;
#X obj 105 27 r reset;
#X obj 780 77 r reset;
#X obj 860 68 gest-son-max 2;
#X msg 546 269 font vera.ttf;
#X floatatom 277 323 5 0 0 0 - - -;
#X floatatom 241 316 5 0 0 0 - - -;
#X floatatom 303 397 5 0 0 0 - - -;
#X obj 120 231 bng 15 250 50 0 empty empty empty 17 7 0 10 -262144
-1 -1;
#X obj 305 69 tgl 15 0 empty empty empty 17 7 0 10 -262144 -1 -1 1
1;
#X obj 188 497 text3d;
#X obj 189 391 rotateXYZ 0 0 0;
#X obj 270 278 text3d;
#X msg 398 234 25;
#X msg 313 453 25;
#X obj 189 340 color 1 0 0 0.8;
#X obj 270 170 color 1 0 0 0.8;
#X obj 189 362 translateXYZ -3.42 0.3 0;
#X floatatom 410 145 5 0 0 0 - - -;
#X floatatom 374 138 5 0 0 0 - - -;
#X obj 270 192 translateXYZ -3.42 3 0;
#X obj 941 146 color 0 1 0 0.8;
#X obj 860 315 color 0 1 0 0.8;
#X obj 941 178 translateXYZ 3.42 3 0;
#X obj 860 348 translateXYZ 3.42 0.3 0;
#X obj 941 264 text3d;
#X obj 860 434 text3d;
#X msg 988 392 25;
#X msg 1068 220 25;
#X obj 978 83 tgl 15 0 empty empty empty 17 7 0 10 -262144 -1 -1 1
1;
#X obj 371 478 line;
#X msg 378 444 25 1000;
#X floatatom 279 542 5 0 0 0 - - -;
#X msg 430 444 0 500;
#X obj 344 528 delay 15;
#X obj 416 528 delay 25;
#X obj 371 503 sel 0 25;
#X msg 371 421 stop;
#X obj 371 397 sel 0 1;
#X obj 493 169 line;
#X msg 552 135 0 500;
#X obj 466 219 delay 15;
#X obj 538 219 delay 25;
#X obj 493 194 sel 0 25;
#X msg 493 112 stop;
#X obj 493 88 sel 0 1;
#X obj 1130 165 line;
#X msg 1189 131 0 500;
#X obj 1103 215 delay 15;
#X obj 1175 215 delay 25;
#X obj 1130 190 sel 0 25;
#X msg 1130 108 stop;
#X obj 1130 84 sel 0 1;
#X obj 1110 392 line;
#X msg 1117 358 25 1000;
#X msg 1169 358 0 500;
#X obj 1083 442 delay 15;
#X obj 1155 442 delay 25;
#X obj 1110 417 sel 0 25;
#X msg 1110 335 stop;
#X obj 1110 311 sel 0 1;
#X msg 500 135 25 500;
#X msg 1137 131 25 500;
#X msg -123 -183 0;
#X obj -123 -210 r reset;
#X msg 610 55 0;
#X obj 607 -50 r win;
#X obj 630 21 delay 50;
#X obj 602 -17 t f b;
#X connect 0 0 30 0;
#X connect 1 0 46 0;
#X connect 2 0 42 0;
#X connect 3 0 1 0;
#X connect 3 0 47 0;
#X connect 4 0 0 0;
#X connect 4 0 34 0;
#X connect 5 0 36 0;
#X connect 6 0 7 0;
#X connect 6 0 33 0;
#X connect 7 0 32 0;
#X connect 8 0 41 0;
#X connect 9 0 10 0;
#X connect 9 0 48 0;
#X connect 10 0 45 0;
#X connect 11 0 12 0;
#X connect 15 0 35 0;
#X connect 16 0 15 0;
#X connect 16 0 58 0;
#X connect 16 1 5 0;
#X connect 16 1 65 0;
#X connect 17 0 5 0;
#X connect 17 0 15 0;
#X connect 18 0 8 0;
#X connect 18 0 2 0;
#X connect 19 0 16 0;
#X connect 20 0 23 0;
#X connect 22 0 18 0;
#X connect 23 0 2 0;
#X connect 23 0 80 0;
#X connect 23 1 8 0;
#X connect 23 1 72 0;
#X connect 24 0 30 0;
#X connect 24 0 32 0;
#X connect 24 0 45 0;
#X connect 24 0 46 0;
#X connect 25 0 37 2;
#X connect 26 0 37 1;
#X connect 27 0 31 1;
#X connect 28 0 15 0;
#X connect 29 0 5 0;
#X connect 31 0 30 0;
#X connect 33 0 32 1;
#X connect 34 0 30 1;
#X connect 35 0 37 0;
#X connect 36 0 40 0;
#X connect 37 0 31 0;
#X connect 38 0 40 2;
#X connect 39 0 40 1;
#X connect 40 0 32 0;
#X connect 41 0 43 0;
#X connect 42 0 44 0;
#X connect 43 0 45 0;
#X connect 44 0 46 0;
#X connect 47 0 46 1;
#X connect 48 0 45 1;
#X connect 49 0 8 0;
#X connect 50 0 56 0;
#X connect 50 0 30 1;
#X connect 51 0 50 0;
#X connect 52 0 30 1;
#X connect 53 0 50 0;
#X connect 54 0 51 0;
#X connect 55 0 53 0;
#X connect 56 0 54 0;
#X connect 56 1 55 0;
#X connect 57 0 50 0;
#X connect 58 0 57 0;
#X connect 58 1 51 0;
#X connect 59 0 63 0;
#X connect 59 0 32 1;
#X connect 60 0 59 0;
#X connect 61 0 81 0;
#X connect 62 0 60 0;
#X connect 63 0 61 0;
#X connect 63 1 62 0;
#X connect 64 0 59 0;
#X connect 65 0 64 0;
#X connect 65 1 81 0;
#X connect 66 0 70 0;
#X connect 66 0 45 1;
#X connect 67 0 66 0;
#X connect 68 0 82 0;
#X connect 69 0 67 0;
#X connect 70 0 68 0;
#X connect 70 1 69 0;
#X connect 71 0 66 0;
#X connect 72 0 71 0;
#X connect 72 1 82 0;
#X connect 73 0 78 0;
#X connect 73 0 46 1;
#X connect 74 0 73 0;
#X connect 75 0 73 0;
#X connect 76 0 74 0;
#X connect 77 0 75 0;
#X connect 78 0 76 0;
#X connect 78 1 77 0;
#X connect 79 0 73 0;
#X connect 80 0 79 0;
#X connect 80 1 74 0;
#X connect 81 0 59 0;
#X connect 82 0 66 0;
#X connect 84 0 83 0;
#X connect 85 0 65 0;
#X connect 85 0 58 0;
#X connect 85 0 72 0;
#X connect 85 0 80 0;
#X connect 85 0 15 0;
#X connect 85 0 5 0;
#X connect 85 0 8 0;
#X connect 85 0 2 0;
#X connect 86 0 88 0;
#X connect 87 0 85 0;
#X connect 88 1 87 0;
#X restore 20 -256 pd gestionduson;
#X obj 20 -128 cnv 15 200 30 empty empty empty 20 12 0 14 -258113 -66577
0;
#X text 40 -122 /!/ CHANGER LES VUMETRES;
#N canvas 3 78 1114 639 pause 0;
#X obj 176 95 pix_texture;
#X obj 47 78 init quality 0;
#X obj 176 -21 pix_info;
#X floatatom 266 80 5 0 0 0 - - -;
#X floatatom 325 77 5 0 0 0 - - -;
#X obj 176 188 rectangle;
#X obj 176 -48 pix_image pause.jpg;
#X obj 47 52 bng 15 250 50 0 empty empty empty 17 7 0 10 -262144 -1
-1;
#X obj 176 -102 gemhead 51;
#X obj 176 -76 translateXYZ -0.07 2.66 0;
#X obj 266 106 / 163;
#X obj 325 103 / 163;
#X obj 176 -375 r pause;
#X obj 273 -376 r reset;
#X obj 176 -162 metro 500;
#X obj 176 -131 tgl 15 0 empty empty empty 17 7 0 10 -262144 -1 -1
0 1;
#X obj 176 -235 tgl 15 0 empty empty empty 17 7 0 10 -262144 -1 -1
0 1;
#X msg 248 -148 0;
#X msg 273 -349 0;
#X obj 176 -210 t f b;
#X obj 646 95 pix_texture;
#X obj 517 78 init quality 0;
#X obj 646 -21 pix_info;
#X floatatom 736 80 5 0 0 0 - - -;
#X floatatom 795 77 5 0 0 0 - - -;
#X obj 646 188 rectangle;
#X obj 517 52 bng 15 250 50 0 empty empty empty 17 7 0 10 -262144 -1
-1;
#X obj 646 -135 gemhead 51;
#X obj 646 -76 translateXYZ -0.07 2.66 0;
#X obj 736 106 / 163;
#X obj 795 103 / 163;
#X obj 646 -48 pix_image pret.png;
#X floatatom 695 -108 5 0 0 0 - - -;
#X obj 646 -160 tgl 15 0 empty empty empty 17 7 0 10 -262144 -1 -1
0 1;
#X obj 646 -257 r reset;
#X msg 646 -230 1;
#X msg 699 -230 0;
#X obj 699 -257 r start;
#X obj 176 -332 spigot;
#X obj 273 -312 r start;
#X msg 273 -285 1;
#X msg 273 -252 0;
#X obj 334 -366 r win;
#X connect 0 0 5 0;
#X connect 1 0 0 0;
#X connect 2 0 0 0;
#X connect 2 1 3 0;
#X connect 2 2 4 0;
#X connect 3 0 10 0;
#X connect 4 0 11 0;
#X connect 6 0 2 0;
#X connect 7 0 1 0;
#X connect 8 0 9 0;
#X connect 9 0 6 0;
#X connect 10 0 5 1;
#X connect 11 0 5 2;
#X connect 12 0 38 0;
#X connect 13 0 18 0;
#X connect 14 0 15 0;
#X connect 15 0 8 0;
#X connect 16 0 19 0;
#X connect 17 0 15 0;
#X connect 18 0 16 0;
#X connect 18 0 38 1;
#X connect 19 0 14 0;
#X connect 19 1 17 0;
#X connect 20 0 25 0;
#X connect 21 0 20 0;
#X connect 22 0 20 0;
#X connect 22 1 23 0;
#X connect 22 2 24 0;
#X connect 23 0 29 0;
#X connect 24 0 30 0;
#X connect 26 0 21 0;
#X connect 27 0 28 0;
#X connect 28 0 31 0;
#X connect 29 0 25 1;
#X connect 30 0 25 2;
#X connect 31 0 22 0;
#X connect 32 0 28 1;
#X connect 33 0 27 0;
#X connect 34 0 35 0;
#X connect 35 0 33 0;
#X connect 36 0 33 0;
#X connect 37 0 36 0;
#X connect 38 0 16 0;
#X connect 39 0 40 0;
#X connect 40 0 38 1;
#X connect 40 0 41 0;
#X connect 41 0 16 0;
#X connect 42 0 18 0;
#X restore 20 -202 pd pause;
#X text 174 -267 i : pause;
#X text 174 -247 w : start;
#X text 174 -287 q : reset;
#N canvas 562 159 667 510 controle 0;
#X obj 155 317 s reset;
#X obj 155 110 bng 15 250 50 0 empty empty empty 17 7 0 10 -262144
-1 -1;
#X obj 211 110 bng 15 250 50 0 empty empty empty 17 7 0 10 -262144
-1 -1;
#X obj 211 317 s pause;
#X obj 267 110 bng 15 250 50 0 empty empty empty 17 7 0 10 -262144
-1 -1;
#X obj 267 317 s start;
#X obj 50 93 loadbang;
#X obj 110 -111 gemkeyboard;
#X floatatom 110 -84 5 0 0 0 - - -;
#X msg 267 291 1;
#X obj 267 194 t b b;
#X obj 322 317 s reset;
#X obj 266 -111 key;
#X floatatom 266 -84 5 0 0 0 - - -;
#X text 319 -34 i;
#X text 157 -34 i;
#X text 343 -35 w;
#X text 173 -35 w;
#X obj 266 -18 sel 113 105 119;
#X obj 110 -18 sel 38 31 52;
#X text 138 -35 q;
#X text 299 -35 q;
#X text 346 93 i : pause;
#X text 346 113 w : start;
#X text 346 73 q : reset;
#X obj 382 183 r win;
#X obj 322 239 once;
#X obj 382 224 bng 15 250 50 0 empty empty empty 17 7 0 10 -262144
-1 -1;
#X connect 1 0 0 0;
#X connect 2 0 3 0;
#X connect 4 0 10 0;
#X connect 6 0 1 0;
#X connect 7 0 8 0;
#X connect 8 0 19 0;
#X connect 9 0 5 0;
#X connect 10 0 9 0;
#X connect 10 1 26 0;
#X connect 12 0 13 0;
#X connect 13 0 18 0;
#X connect 18 0 1 0;
#X connect 18 1 2 0;
#X connect 18 2 4 0;
#X connect 19 0 1 0;
#X connect 19 1 2 0;
#X connect 19 2 4 0;
#X connect 25 0 27 0;
#X connect 26 0 11 0;
#X connect 27 0 26 1;
#X restore 20 -229 pd controle;
#X msg 333 -267 55;
#X msg 301 -267 70;
#N canvas 756 392 480 579 win 0;
#X obj 46 -210 r win;
#X msg 93 -116 open \$1-win.png;
#X obj -123 198 pix_texture;
#X obj -252 181 init quality 0;
#X obj -123 82 pix_info;
#X floatatom -33 183 5 0 0 0 - - -;
#X floatatom 26 180 5 0 0 0 - - -;
#X obj -123 291 rectangle;
#X obj -252 155 bng 15 250 50 0 empty empty empty 17 7 0 10 -262144
-1 -1;
#X obj -123 1 gemhead 51;
#X obj -33 209 / 163;
#X obj 26 206 / 163;
#X obj -123 -28 tgl 15 0 empty empty empty 17 7 0 10 -262144 -1 -1
1 1;
#X msg -51 -45 0;
#X obj -123 -107 t f b;
#X obj -123 55 pix_image;
#X obj 46 -153 t b f;
#X msg 46 -124 1;
#X obj -123 -59 metro 1000;
#X msg -123 -183 0;
#X obj -123 -210 r reset;
#X msg 36 38 open toto.png;
#X msg 103 -173 1;
#X msg 108 -149 2;
#X obj -123 27 translateXYZ 0 0 0;
#X connect 0 0 16 0;
#X connect 1 0 15 0;
#X connect 2 0 7 0;
#X connect 3 0 2 0;
#X connect 4 0 2 0;
#X connect 4 1 5 0;
#X connect 4 2 6 0;
#X connect 5 0 10 0;
#X connect 6 0 11 0;
#X connect 8 0 3 0;
#X connect 9 0 24 0;
#X connect 10 0 7 1;
#X connect 11 0 7 2;
#X connect 12 0 9 0;
#X connect 13 0 12 0;
#X connect 14 0 18 0;
#X connect 14 1 13 0;
#X connect 15 0 4 0;
#X connect 16 0 17 0;
#X connect 16 1 1 0;
#X connect 17 0 14 0;
#X connect 18 0 12 0;
#X connect 19 0 14 0;
#X connect 20 0 19 0;
#X connect 21 0 15 0;
#X connect 22 0 16 0;
#X connect 23 0 16 0;
#X connect 24 0 15 0;
#X restore 20 -176 pd win;
#X obj 295 53 jauge 2.4;
#X obj 176 -63 chienchien 1 -3.5;
#X obj 371 -63 chienchien 2 3.5;
#X floatatom 289 -29 5 0 0 0 - - -;
#X floatatom 332 -29 5 0 0 0 - - -;
#X obj 49 83 s speedstep;
#X msg 60 -56 0.5;
#X msg 80 -14 1;
#X msg 67 -34 0.7;
#X msg 86 7 1.5;
#X msg 93 29 2;
#X text 98 -59 default;
#X floatatom 150 -45 5 0 0 0 - - -;
#X floatatom 473 -45 5 0 0 0 - - -;
#X text 132 -24 -2.67 2.73;
#X connect 14 0 3 0;
#X connect 14 0 9 0;
#X connect 14 0 46 0;
#X connect 15 0 6 0;
#X connect 15 0 12 0;
#X connect 15 0 47 0;
#X connect 16 0 41 0;
#X connect 16 0 40 0;
#X connect 40 0 15 0;
#X connect 41 0 14 0;
#X connect 44 0 55 0;
#X connect 45 0 56 0;
#X connect 49 0 48 0;
#X connect 50 0 48 0;
#X connect 51 0 48 0;
#X connect 52 0 48 0;
#X connect 53 0 48 0;
