#N canvas 562 147 1241 654 10;
#X obj 124 370 pix_texture;
#X obj -5 353 init quality 0;
#X obj 124 254 pix_info;
#X floatatom 214 355 5 0 0 0 - - -;
#X floatatom 273 352 5 0 0 0 - - -;
#X obj 124 463 rectangle;
#X obj 124 123 alpha;
#X obj 124 94 gemhead 60;
#X floatatom 161 154 5 0 0 0 - - -;
#X floatatom 198 154 5 0 0 0 - - -;
#X obj 612 678 pix_texture;
#X obj 483 661 init quality 0;
#X obj 612 562 pix_info;
#X floatatom 702 663 5 0 0 0 - - -;
#X floatatom 761 660 5 0 0 0 - - -;
#X obj 612 771 rectangle;
#X obj 702 689 / 100;
#X obj 761 686 / 100;
#X obj 612 21 alpha;
#X obj 612 -6 gemhead 60;
#X floatatom 655 21 5 0 0 0 - - -;
#X floatatom 698 21 5 0 0 0 - - -;
#X obj 949 678 pix_texture;
#X obj 820 661 init quality 0;
#X obj 949 562 pix_info;
#X floatatom 1039 663 5 0 0 0 - - -;
#X floatatom 1098 660 5 0 0 0 - - -;
#X obj 949 771 rectangle;
#X obj 1039 689 / 100;
#X obj 1098 686 / 100;
#X obj 949 21 alpha;
#X obj 949 -6 gemhead 60;
#X floatatom 992 21 5 0 0 0 - - -;
#X floatatom 1035 21 5 0 0 0 - - -;
#X obj 612 47 translateXYZ \$2 4.25 0;
#X obj 949 47 translateXYZ \$2 5.96 0;
#X obj 612 525 pix_image noteN-D.png;
#X obj 949 522 pix_image noteN-G.png;
#X msg 657 463 open noteN-D.png;
#X msg 676 491 open noteB-G.png;
#X msg 993 461 open noteN-G.png;
#X msg 1012 489 open noteB-D.png;
#X obj 657 375 init \$1;
#X obj 657 407 sel 1 2;
#X obj 993 369 init \$1;
#X obj 993 401 sel 1 2;
#X obj 612 192 translateXYZ 0 0 0;
#X obj 647 101 sel 1 2;
#X msg 647 128 1.7;
#X msg 666 156 -1.7;
#X obj 647 74 init \$1;
#X obj 949 192 translateXYZ 0 0 0;
#X obj 984 101 sel 1 2;
#X obj 984 74 init \$1;
#X msg 984 128 -1;
#X msg 1003 156 1;
#X obj 612 307 translateXYZ 0 0 0;
#X obj 949 303 translateXYZ 0 0 0;
#X obj 341 29 spigot 1;
#X obj 452 -11 r reset;
#X obj 124 180 translateXYZ \$2 0 0;
#X obj 341 -32 r shoot-\$1;
#X obj 341 52 moteur \$1;
#X obj 745 -105 r reset;
#X msg 745 -52 0;
#X obj 682 243 r win-note-\$1;
#X obj 1019 239 r win-note-\$1;
#X obj 1019 271 * -1;
#X msg 809 -52 1;
#X obj 386 -11 r start;
#X msg 452 12 0;
#X obj 809 -105 r win;
#X obj 809 -78 sel \$1;
#X obj 124 217 pix_image mioches\$1a.png;
#X floatatom 313 353 5 0 0 0 - - -;
#X obj 214 381 / 300;
#X obj 273 378 / 300;
#X obj 492 29 tgl 15 0 empty empty empty 17 7 0 10 -262144 -1 -1 0
1;
#X obj 492 78 tgl 15 0 empty empty empty 17 7 0 10 -262144 -1 -1 0
1;
#X obj 492 98 sel 0 1;
#X obj 440 305 print settt;
#X msg 495 150 symbol b;
#X msg 472 127 symbol a;
#X msg 215 248 open \$1;
#X obj 430 180 makefilename mioches\$1%s.png;
#X obj 341 75 t b f b;
#X obj 319 108 random 100;
#X obj 297 140 maxlib/scale 0 99 -6 -1;
#X obj 203 108 \$2;
#X obj 204 75 t b;
#X obj 288 185 line;
#X msg 347 173 \$1 100;
#X obj 417 91 \$2;
#X obj 415 58 loadbang;
#X obj 436 36 bng 15 250 50 0 empty empty empty 17 7 0 10 -262144 -1
-1;
#X obj 393 113 - 0.5;
#X obj 433 113 + 0.5;
#X obj 492 50 metro 400;
#X obj 393 376 outlet;
#X connect 0 0 5 0;
#X connect 1 0 0 0;
#X connect 2 0 0 0;
#X connect 2 1 3 0;
#X connect 2 2 4 0;
#X connect 3 0 75 0;
#X connect 4 0 76 0;
#X connect 6 0 60 0;
#X connect 7 0 6 0;
#X connect 8 0 60 1;
#X connect 9 0 60 2;
#X connect 10 0 15 0;
#X connect 11 0 10 0;
#X connect 12 0 10 0;
#X connect 12 1 13 0;
#X connect 12 2 14 0;
#X connect 13 0 16 0;
#X connect 14 0 17 0;
#X connect 16 0 15 1;
#X connect 17 0 15 2;
#X connect 18 0 34 0;
#X connect 19 0 18 0;
#X connect 20 0 34 1;
#X connect 21 0 34 2;
#X connect 22 0 27 0;
#X connect 23 0 22 0;
#X connect 24 0 22 0;
#X connect 24 1 25 0;
#X connect 24 2 26 0;
#X connect 25 0 28 0;
#X connect 26 0 29 0;
#X connect 28 0 27 1;
#X connect 29 0 27 2;
#X connect 30 0 35 0;
#X connect 31 0 30 0;
#X connect 32 0 35 1;
#X connect 33 0 35 2;
#X connect 34 0 46 0;
#X connect 35 0 51 0;
#X connect 36 0 12 0;
#X connect 37 0 24 0;
#X connect 38 0 36 0;
#X connect 39 0 36 0;
#X connect 40 0 37 0;
#X connect 41 0 37 0;
#X connect 42 0 43 0;
#X connect 43 0 38 0;
#X connect 43 1 39 0;
#X connect 44 0 45 0;
#X connect 45 0 40 0;
#X connect 45 1 41 0;
#X connect 46 0 56 0;
#X connect 47 0 48 0;
#X connect 47 1 49 0;
#X connect 48 0 46 1;
#X connect 49 0 46 1;
#X connect 50 0 47 0;
#X connect 51 0 57 0;
#X connect 52 0 54 0;
#X connect 52 1 55 0;
#X connect 53 0 52 0;
#X connect 54 0 51 1;
#X connect 55 0 51 1;
#X connect 56 0 36 0;
#X connect 57 0 37 0;
#X connect 58 0 62 0;
#X connect 59 0 70 0;
#X connect 59 0 89 0;
#X connect 60 0 73 0;
#X connect 61 0 58 0;
#X connect 62 0 85 0;
#X connect 63 0 64 0;
#X connect 64 0 19 0;
#X connect 64 0 31 0;
#X connect 64 0 77 0;
#X connect 65 0 56 2;
#X connect 66 0 67 0;
#X connect 67 0 57 2;
#X connect 68 0 19 0;
#X connect 68 0 31 0;
#X connect 68 0 77 0;
#X connect 69 0 58 1;
#X connect 70 0 58 1;
#X connect 71 0 72 0;
#X connect 72 0 68 0;
#X connect 73 0 2 0;
#X connect 74 0 75 1;
#X connect 74 0 76 1;
#X connect 75 0 5 1;
#X connect 76 0 5 2;
#X connect 77 0 97 0;
#X connect 78 0 79 0;
#X connect 79 0 82 0;
#X connect 79 1 81 0;
#X connect 81 0 84 0;
#X connect 82 0 84 0;
#X connect 83 0 73 0;
#X connect 84 0 83 0;
#X connect 85 0 78 0;
#X connect 85 1 9 0;
#X connect 85 1 98 0;
#X connect 85 2 86 0;
#X connect 86 0 87 0;
#X connect 87 0 91 0;
#X connect 88 0 8 0;
#X connect 89 0 88 0;
#X connect 90 0 8 0;
#X connect 91 0 90 0;
#X connect 92 0 95 0;
#X connect 92 0 96 0;
#X connect 93 0 92 0;
#X connect 94 0 92 0;
#X connect 95 0 87 3;
#X connect 96 0 87 4;
#X connect 97 0 78 0;
