#N canvas 0 0 1040 691 10;
#X obj 164 29 r y-max-\$1;
#X obj 302 26 r y-min-\$1;
#X obj 216 168 +;
#X obj 216 197 == 2;
#X obj 216 246 sel 0 1;
#X obj 216 490 metro 1000;
#X msg 235 454 1;
#X msg 216 348 0;
#X obj 137 72 < 100;
#X obj 275 75 > 100;
#X obj 259 108 t b f;
#X obj 216 222 change;
#X obj 235 322 delay 500;
#X obj 235 417 spigot;
#X obj 235 275 t b b;
#X msg 319 349 1;
#X obj 110 471 outlet;
#X obj 137 -80 inlet;
#X obj 216 531 s shoot-\$1;
#X connect 0 0 8 1;
#X connect 1 0 9 1;
#X connect 2 0 3 0;
#X connect 3 0 11 0;
#X connect 4 0 7 0;
#X connect 4 1 14 0;
#X connect 5 0 18 0;
#X connect 6 0 5 0;
#X connect 6 0 16 0;
#X connect 7 0 5 0;
#X connect 7 0 13 1;
#X connect 7 0 16 0;
#X connect 8 0 2 0;
#X connect 9 0 10 0;
#X connect 10 0 2 0;
#X connect 10 1 2 1;
#X connect 11 0 4 0;
#X connect 12 0 13 0;
#X connect 13 0 6 0;
#X connect 14 0 12 0;
#X connect 14 1 15 0;
#X connect 15 0 13 1;
#X connect 17 0 8 0;
#X connect 17 0 9 0;
