#N canvas 795 242 1009 686 10;
#X obj 220 49 r y-max-1;
#X obj 220 434 r y-min-1;
#X obj 690 49 r y-max-2;
#X obj 690 433 r y-min-2;
#X obj 224 286 i;
#X obj 694 289 i;
#X obj 311 35 \$1;
#X obj 311 58 - 2;
#X obj 327 2 loadbang;
#X obj 342 34 \$1;
#X obj 342 57 + 2;
#X obj 781 35 \$1;
#X obj 781 58 - 2;
#X obj 797 2 loadbang;
#X obj 812 34 \$1;
#X obj 812 57 + 2;
#X obj 785 252 \$1;
#X obj 785 275 - 2;
#X obj 801 219 loadbang;
#X obj 816 251 \$1;
#X obj 816 274 + 2;
#X obj 315 252 \$1;
#X obj 315 275 - 2;
#X obj 331 219 loadbang;
#X obj 346 251 \$1;
#X obj 346 274 + 2;
#X obj 311 410 \$1;
#X obj 311 433 - 2;
#X obj 327 377 loadbang;
#X obj 342 409 \$1;
#X obj 342 432 + 2;
#X obj 781 410 \$1;
#X obj 781 433 - 2;
#X obj 797 377 loadbang;
#X obj 812 409 \$1;
#X obj 812 432 + 2;
#X obj 694 315 maxlib/scale 30 100 -1.2 3;
#X obj 224 311 maxlib/scale 30 100 -1.2 3;
#X obj 220 91 maxlib/scale 30 100 -1.2 3;
#X obj 690 91 maxlib/scale 30 100 -1.2 3;
#X obj 690 475 maxlib/scale 30 100 -1.5 3;
#X obj 220 476 maxlib/scale 30 100 -1.5 3;
#X obj 224 263 r y-in-1;
#X obj 694 266 r y-in-2;
#X floatatom 242 142 5 0 0 0 - - -;
#X obj 134 185 translateXYZ -7 3 0;
#X floatatom 248 525 5 0 0 0 - - -;
#X obj 134 570 translateXYZ -7 3 0;
#X obj 134 156 color 1 0 0;
#X obj 134 127 gemhead 65;
#X obj 134 292 gemhead 65;
#X obj 134 512 gemhead 65;
#X obj 608 127 gemhead 65;
#X obj 607 295 gemhead 65;
#X obj 607 511 gemhead 65;
#X obj 134 319 color 1 0 0;
#X obj 134 541 color 1 0 0;
#X obj 608 158 color 0 1 0;
#X obj 606 325 color 0 1 0;
#X obj 607 540 color 0 1 0;
#X obj 608 185 translateXYZ 7 3 0;
#X obj 608 568 translateXYZ 7 3 0;
#X obj 604 355 translateXYZ 6.7 3 0;
#X obj 134 350 translateXYZ -6.7 3 0;
#X obj 608 217 rectangle 0.3 0.03;
#X obj 608 600 rectangle 0.2 0.03;
#X obj 134 217 rectangle 0.3 0.03;
#X obj 133 601 rectangle 0.2 0.03;
#X obj 134 382 rectangle 0.4 0.06;
#X obj 602 387 rectangle 0.4 0.06;
#X connect 0 0 38 0;
#X connect 1 0 41 0;
#X connect 2 0 39 0;
#X connect 3 0 40 0;
#X connect 4 0 37 0;
#X connect 5 0 36 0;
#X connect 6 0 7 0;
#X connect 7 0 38 3;
#X connect 8 0 9 0;
#X connect 8 0 6 0;
#X connect 9 0 10 0;
#X connect 10 0 38 4;
#X connect 11 0 12 0;
#X connect 12 0 39 3;
#X connect 13 0 14 0;
#X connect 13 0 11 0;
#X connect 14 0 15 0;
#X connect 15 0 39 4;
#X connect 16 0 17 0;
#X connect 17 0 36 3;
#X connect 18 0 19 0;
#X connect 18 0 16 0;
#X connect 19 0 20 0;
#X connect 20 0 36 4;
#X connect 21 0 22 0;
#X connect 22 0 37 3;
#X connect 23 0 24 0;
#X connect 23 0 21 0;
#X connect 24 0 25 0;
#X connect 25 0 37 4;
#X connect 26 0 27 0;
#X connect 27 0 41 3;
#X connect 28 0 29 0;
#X connect 28 0 26 0;
#X connect 29 0 30 0;
#X connect 30 0 41 4;
#X connect 31 0 32 0;
#X connect 32 0 40 3;
#X connect 33 0 34 0;
#X connect 33 0 31 0;
#X connect 34 0 35 0;
#X connect 35 0 40 4;
#X connect 36 0 62 2;
#X connect 37 0 63 2;
#X connect 38 0 45 2;
#X connect 39 0 60 2;
#X connect 40 0 61 2;
#X connect 41 0 47 2;
#X connect 42 0 4 0;
#X connect 43 0 5 0;
#X connect 44 0 45 1;
#X connect 45 0 66 0;
#X connect 46 0 47 1;
#X connect 47 0 67 0;
#X connect 48 0 45 0;
#X connect 49 0 48 0;
#X connect 50 0 55 0;
#X connect 51 0 56 0;
#X connect 52 0 57 0;
#X connect 53 0 58 0;
#X connect 54 0 59 0;
#X connect 55 0 63 0;
#X connect 56 0 47 0;
#X connect 57 0 60 0;
#X connect 58 0 62 0;
#X connect 59 0 61 0;
#X connect 60 0 64 0;
#X connect 61 0 65 0;
#X connect 62 0 69 0;
#X connect 63 0 68 0;
