#N canvas 987 609 409 443 10;
#X obj 133 468 outlet;
#X obj 133 19 inlet;
#X obj 34 57 r reset;
#X obj 133 231 f;
#X obj 133 431 / 10;
#X obj 305 158 tgl 15 0 empty empty empty 17 7 0 10 -262144 -1 -1 0.3
0.3;
#X obj 305 133 metro 250;
#X obj 305 190 s win-note-\$1;
#X floatatom 92 289 5 0 0 0 - - -;
#X obj 153 306 t b b;
#X obj 242 347 s start;
#X msg 242 323 0;
#X obj 153 356 \$1;
#X obj 153 395 s win;
#X msg 76 116 0;
#X obj 34 87 t b b;
#X msg 31 118 -26.7;
#X floatatom 58 330 5 0 0 0 - - -;
#X obj 226 270 bng 15 250 50 0 empty empty empty 17 7 0 10 -262144
-1 -1;
#X obj 167 214 + 0.5;
#X obj 188 159 r speedstep;
#X floatatom 188 185 5 0 0 0 - - -;
#X obj 172 244 > 25.5;
#X obj 153 268 sel 1;
#X connect 1 0 3 0;
#X connect 2 0 15 0;
#X connect 3 0 4 0;
#X connect 3 0 8 0;
#X connect 3 0 17 0;
#X connect 3 0 19 0;
#X connect 3 0 22 0;
#X connect 4 0 0 0;
#X connect 5 0 7 0;
#X connect 6 0 5 0;
#X connect 9 0 12 0;
#X connect 9 1 11 0;
#X connect 11 0 10 0;
#X connect 12 0 13 0;
#X connect 14 0 6 0;
#X connect 15 0 16 0;
#X connect 15 1 14 0;
#X connect 16 0 3 0;
#X connect 18 0 9 0;
#X connect 19 0 3 1;
#X connect 20 0 21 0;
#X connect 21 0 19 1;
#X connect 22 0 23 0;
#X connect 23 0 6 0;
#X connect 23 0 9 0;
