#N canvas 3 78 587 571 10;
#N canvas 3 241 465 296 GEM 0;
#X obj 44 216 gemwin;
#X obj 44 113 sel 1 0;
#X msg 63 180 0 \, destroy;
#X obj 44 85 tgl 15 0 empty empty empty 17 7 0 10 -262144 -1 -1 1 1
;
#X obj 44 27 gemkeyboard;
#X obj 44 54 sel 9;
#X obj 123 27 key;
#X obj 123 68 sel 27;
#X msg 44 140 border 0 \, view 0 2.66 4 \, offset 1366 0 \, dimen 1024
768 \, color 1 1 1 \, create \, 1;
#X connect 1 0 8 0;
#X connect 1 1 2 0;
#X connect 2 0 0 0;
#X connect 3 0 1 0;
#X connect 4 0 5 0;
#X connect 5 0 3 0;
#X connect 6 0 7 0;
#X connect 7 0 3 0;
#X connect 8 0 0 0;
#X restore 20 -310 pd GEM;
#N canvas 342 78 883 376 decors 0;
#X obj -1779 -250 color 0 0 0;
#X obj -1779 -223 rectangle 2.665 4;
#X obj -1779 -277 translateXYZ 2.665 2.66 0;
#X obj -1490 -101 pix_texture;
#X obj -1490 -11 rectangle;
#X obj -1168 -104 pix_texture;
#X obj -1168 -14 rectangle;
#X obj -1490 -188 pix_image ampli1.png;
#X obj -1168 -191 pix_image ampli2.png;
#X obj -1490 -252 alpha;
#X obj -1168 -252 alpha;
#X obj -1168 -295 gemhead 80;
#X obj -1490 -292 gemhead 80;
#X obj -1779 -304 gemhead 10;
#X obj -1605 -118 init quality 0;
#X obj -1168 -155 pix_info;
#X floatatom -1075 -93 5 0 0 0 - - -;
#X floatatom -1016 -96 5 0 0 0 - - -;
#X obj -1075 -67 / 100;
#X obj -1016 -70 / 100;
#X obj -1490 -150 pix_info;
#X floatatom -1397 -88 5 0 0 0 - - -;
#X floatatom -1338 -91 5 0 0 0 - - -;
#X obj -1397 -62 / 100;
#X obj -1338 -65 / 100;
#X obj -1490 -215 translateXYZ -1.23 5.44 0;
#X obj -1168 -218 translateXYZ 1.23 5.44 0;
#X obj -1283 -121 init quality 0;
#X connect 0 0 1 0;
#X connect 2 0 0 0;
#X connect 3 0 4 0;
#X connect 5 0 6 0;
#X connect 7 0 20 0;
#X connect 8 0 15 0;
#X connect 9 0 25 0;
#X connect 10 0 26 0;
#X connect 11 0 10 0;
#X connect 12 0 9 0;
#X connect 13 0 2 0;
#X connect 14 0 3 0;
#X connect 15 0 5 0;
#X connect 15 1 16 0;
#X connect 15 2 17 0;
#X connect 16 0 18 0;
#X connect 17 0 19 0;
#X connect 18 0 6 1;
#X connect 19 0 6 2;
#X connect 20 0 3 0;
#X connect 20 1 21 0;
#X connect 20 2 22 0;
#X connect 21 0 23 0;
#X connect 22 0 24 0;
#X connect 23 0 4 1;
#X connect 24 0 4 2;
#X connect 25 0 7 0;
#X connect 26 0 8 0;
#X connect 27 0 5 0;
#X restore 20 -283 pd decors;
#X obj 295 53 jauge 2.4;
#X obj 215 -32 vsl 8 200 0 100 0 0 y-in-1 son-in-vu-1 empty 0 -8 0
8 -228992 -1 -1 8756 1;
#X obj 224 -32 vsl 10 200 0 100 0 0 y-max-1 empty empty 0 -8 0 8 -257472
-1 -1 13930 1;
#X floatatom 217 182 5 0 0 0 - y-max-1 -;
#X floatatom 180 182 3 0 0 0 - y-in-1 son-in-1;
#X obj 234 -32 vsl 10 200 0 100 0 0 y-min-1 empty empty 0 -8 0 8 -257472
-1 -1 10945 1;
#X floatatom 255 182 5 0 0 0 - y-min-1 -;
#X obj 408 -32 vsl 8 200 0 100 0 0 y-in-2 son-in-vu-2 empty 0 -8 0
8 -228992 -1 -1 8955 1;
#X obj 417 -32 vsl 10 200 0 100 0 0 y-max-2 empty empty 0 -8 0 8 -257472
-1 -1 13930 1;
#X floatatom 410 182 5 0 0 0 - y-max-2 -;
#X floatatom 373 182 3 0 0 0 - y-in-2 son-in-2;
#X obj 427 -32 vsl 10 200 0 100 0 0 y-min-2 empty empty 0 -8 0 8 -257472
-1 -1 10945 1;
#X floatatom 448 182 5 0 0 0 - y-min-2 -;
#X obj 312 -237 vsl 10 200 0 100 0 0 empty empty empty 0 -8 0 8 -257472
-1 -1 13930 1;
#X obj 322 -237 vsl 10 200 0 100 0 0 empty empty empty 0 -8 0 8 -257472
-1 -1 10945 1;
#X obj 317 -300 loadbang;
#X text 262 -11 <---- limite A ---->;
#X text 262 20 <---- limite B ---->;
#X text 341 -210 Pour regler les jauges des;
#X text 341 -195 deux équipes en même temps;
#X text 370 -268 Initialisation des jauges;
#X text 224 200 A;
#X text 264 200 B;
#X text 180 200 Niv;
#X text 418 199 A;
#X text 458 199 B;
#X text 374 199 Niv;
#X text 195 -87 Equipe noire;
#X text 377 -85 Equipe blanche;
#N canvas 510 173 853 446 son-in 0;
#X obj 439 245 tgl 10 0 empty empty empty 0 -6 0 8 -262144 -1 -1 1
1;
#X obj 160 255 spigot 0;
#X obj 455 245 tgl 10 0 empty empty empty 0 -6 0 8 -262144 -1 -1 1
1;
#X obj 613 255 spigot 0;
#X obj 205 313 s son-in-vu-1;
#X obj 160 218 i;
#X obj 613 207 i;
#X obj 160 60 adc~ 1;
#X obj 613 75 adc~ 2;
#X obj 613 177 env~ 8192;
#X obj 160 128 hip~ 5;
#X obj 160 177 env~ 8192;
#X obj 614 132 hip~ 5;
#X obj 412 60 r pause;
#X obj 412 173 t b f;
#X msg 479 188 1;
#X obj 160 282 moses 40;
#X obj 613 289 moses 40;
#X obj 658 320 s son-in-vu-2;
#X msg 126 299 40;
#X msg 412 385 40;
#X msg 579 306 40;
#X obj 479 90 r reset;
#X obj 289 121 r start;
#X obj 412 138 tgl 15 0 empty empty empty 17 7 0 10 -262144 -1 -1 1
1;
#X msg 426 107 set 1;
#X obj 529 90 r win;
#X msg 529 121 0;
#X connect 0 0 1 1;
#X connect 1 0 16 0;
#X connect 2 0 3 1;
#X connect 3 0 17 0;
#X connect 5 0 1 0;
#X connect 6 0 3 0;
#X connect 7 0 10 0;
#X connect 8 0 12 0;
#X connect 9 0 6 0;
#X connect 10 0 11 0;
#X connect 11 0 5 0;
#X connect 12 0 9 0;
#X connect 13 0 24 0;
#X connect 14 0 20 0;
#X connect 14 1 0 0;
#X connect 14 1 2 0;
#X connect 15 0 0 0;
#X connect 15 0 2 0;
#X connect 16 0 19 0;
#X connect 16 1 4 0;
#X connect 17 0 21 0;
#X connect 17 1 18 0;
#X connect 19 0 16 0;
#X connect 20 0 4 0;
#X connect 20 0 18 0;
#X connect 21 0 17 0;
#X connect 22 0 25 0;
#X connect 22 0 15 0;
#X connect 23 0 24 0;
#X connect 24 0 14 0;
#X connect 25 0 24 0;
#X connect 26 0 27 0;
#X connect 27 0 24 0;
#X coords 0 -1 1 1 100 19 1 370 240;
#X restore 276 108 pd son-in;
#X text 276 87 Ouvre les micros;
#N canvas 93 78 1270 686 gestionduson 0;
#X obj 189 448 text2d;
#X msg 206 414 text GO !;
#X obj 711 438 text2d;
#X msg 728 404 text GO !;
#X obj 711 285 gemhead;
#X obj 728 379 loadbang;
#X obj 206 387 loadbang;
#X obj 189 340 color 0 0 0;
#X obj 270 278 text2d;
#X obj 270 125 gemhead;
#X obj 287 217 loadbang;
#X obj 270 170 color 0 0 0;
#X msg 287 244 text GO GO !;
#X obj 792 268 text2d;
#X obj 792 125 gemhead;
#X obj 809 207 loadbang;
#X msg 809 234 text GO GO !;
#X obj 449 -81 loadbang;
#X msg 449 -48 \; pd dsp 1 \;;
#X text 188 14 Equipe noire;
#X text 711 20 Equipe blanche;
#X obj 189 295 gemhead;
#X obj 270 192 translateXYZ -4.35 4 0;
#X obj 189 362 translateXYZ -4.38 3.2 0;
#X obj 711 352 translateXYZ 4.38 3.2 0;
#X obj 792 182 translateXYZ 4.35 4 0;
#X obj 792 151 color 1 1 1;
#X obj 711 319 color 1 1 1;
#X msg 314 404 65;
#X msg 398 234 65;
#X msg 839 396 65;
#X msg 919 224 65;
#X obj 189 72 gest-son-max 1;
#X obj 104 108 init 0;
#X obj 631 108 init 0;
#X obj 189 45 r y-in-1;
#X obj 711 45 r y-in-2;
#X obj 104 81 r reset;
#X obj 631 81 r reset;
#X obj 711 72 gest-son-max 2;
#X connect 1 0 0 0;
#X connect 3 0 2 0;
#X connect 4 0 27 0;
#X connect 5 0 3 0;
#X connect 5 0 30 0;
#X connect 6 0 1 0;
#X connect 6 0 28 0;
#X connect 7 0 23 0;
#X connect 9 0 11 0;
#X connect 10 0 12 0;
#X connect 10 0 29 0;
#X connect 11 0 22 0;
#X connect 12 0 8 0;
#X connect 14 0 26 0;
#X connect 15 0 16 0;
#X connect 15 0 31 0;
#X connect 16 0 13 0;
#X connect 17 0 18 0;
#X connect 21 0 7 0;
#X connect 22 0 8 0;
#X connect 23 0 0 0;
#X connect 24 0 2 0;
#X connect 25 0 13 0;
#X connect 26 0 25 0;
#X connect 27 0 24 0;
#X connect 28 0 0 1;
#X connect 29 0 8 1;
#X connect 30 0 2 1;
#X connect 31 0 13 1;
#X connect 32 0 21 0;
#X connect 32 1 9 0;
#X connect 33 0 9 0;
#X connect 33 0 21 0;
#X connect 34 0 14 0;
#X connect 34 0 4 0;
#X connect 35 0 32 0;
#X connect 36 0 39 0;
#X connect 37 0 33 0;
#X connect 38 0 34 0;
#X connect 39 0 4 0;
#X connect 39 1 14 0;
#X restore 20 -256 pd gestionduson;
#X obj 20 -128 cnv 15 200 30 empty empty empty 20 12 0 14 -258113 -66577
0;
#X text 40 -122 /!/ CHANGER LES VUMETRES;
#X obj 371 -63 chienchien 2 2.87;
#N canvas 3 78 1114 639 pause 0;
#X obj 176 95 pix_texture;
#X obj 47 78 init quality 0;
#X obj 176 -21 pix_info;
#X floatatom 266 80 5 0 0 0 - - -;
#X floatatom 325 77 5 0 0 0 - - -;
#X obj 176 188 rectangle;
#X obj 176 -48 pix_image pause.jpg;
#X obj 47 52 bng 15 250 50 0 empty empty empty 17 7 0 10 -262144 -1
-1;
#X obj 176 -102 gemhead 51;
#X obj 176 -76 translateXYZ -0.07 2.66 0;
#X obj 266 106 / 163;
#X obj 325 103 / 163;
#X obj 176 -375 r pause;
#X obj 273 -376 r reset;
#X obj 176 -162 metro 500;
#X obj 176 -131 tgl 15 0 empty empty empty 17 7 0 10 -262144 -1 -1
0 1;
#X obj 176 -235 tgl 15 0 empty empty empty 17 7 0 10 -262144 -1 -1
0 1;
#X msg 248 -148 0;
#X msg 273 -349 0;
#X obj 176 -210 t f b;
#X obj 646 95 pix_texture;
#X obj 517 78 init quality 0;
#X obj 646 -21 pix_info;
#X floatatom 736 80 5 0 0 0 - - -;
#X floatatom 795 77 5 0 0 0 - - -;
#X obj 646 188 rectangle;
#X obj 517 52 bng 15 250 50 0 empty empty empty 17 7 0 10 -262144 -1
-1;
#X obj 646 -135 gemhead 51;
#X obj 646 -76 translateXYZ -0.07 2.66 0;
#X obj 736 106 / 163;
#X obj 795 103 / 163;
#X obj 646 -48 pix_image pret.png;
#X floatatom 695 -108 5 0 0 0 - - -;
#X obj 646 -160 tgl 15 0 empty empty empty 17 7 0 10 -262144 -1 -1
0 1;
#X obj 646 -257 r reset;
#X msg 646 -230 1;
#X msg 699 -230 0;
#X obj 699 -257 r start;
#X obj 176 -332 spigot;
#X obj 273 -312 r start;
#X msg 273 -285 1;
#X msg 273 -252 0;
#X obj 334 -366 r win;
#X connect 0 0 5 0;
#X connect 1 0 0 0;
#X connect 2 0 0 0;
#X connect 2 1 3 0;
#X connect 2 2 4 0;
#X connect 3 0 10 0;
#X connect 4 0 11 0;
#X connect 6 0 2 0;
#X connect 7 0 1 0;
#X connect 8 0 9 0;
#X connect 9 0 6 0;
#X connect 10 0 5 1;
#X connect 11 0 5 2;
#X connect 12 0 38 0;
#X connect 13 0 18 0;
#X connect 14 0 15 0;
#X connect 15 0 8 0;
#X connect 16 0 19 0;
#X connect 17 0 15 0;
#X connect 18 0 16 0;
#X connect 18 0 38 1;
#X connect 19 0 14 0;
#X connect 19 1 17 0;
#X connect 20 0 25 0;
#X connect 21 0 20 0;
#X connect 22 0 20 0;
#X connect 22 1 23 0;
#X connect 22 2 24 0;
#X connect 23 0 29 0;
#X connect 24 0 30 0;
#X connect 26 0 21 0;
#X connect 27 0 28 0;
#X connect 28 0 31 0;
#X connect 29 0 25 1;
#X connect 30 0 25 2;
#X connect 31 0 22 0;
#X connect 32 0 28 1;
#X connect 33 0 27 0;
#X connect 34 0 35 0;
#X connect 35 0 33 0;
#X connect 36 0 33 0;
#X connect 37 0 36 0;
#X connect 38 0 16 0;
#X connect 39 0 40 0;
#X connect 40 0 38 1;
#X connect 40 0 41 0;
#X connect 41 0 16 0;
#X connect 42 0 18 0;
#X restore 20 -202 pd pause;
#X text 174 -267 i : pause;
#X text 174 -247 w : start;
#X text 174 -287 q : reset;
#N canvas 562 159 667 510 controle 0;
#X obj 155 317 s reset;
#X obj 155 110 bng 15 250 50 0 empty empty empty 17 7 0 10 -262144
-1 -1;
#X obj 211 110 bng 15 250 50 0 empty empty empty 17 7 0 10 -262144
-1 -1;
#X obj 211 317 s pause;
#X obj 267 110 bng 15 250 50 0 empty empty empty 17 7 0 10 -262144
-1 -1;
#X obj 267 317 s start;
#X obj 50 93 loadbang;
#X obj 110 -111 gemkeyboard;
#X floatatom 110 -84 5 0 0 0 - - -;
#X msg 267 291 1;
#X obj 267 194 t b b;
#X obj 322 317 s reset;
#X obj 266 -111 key;
#X floatatom 266 -84 5 0 0 0 - - -;
#X text 319 -34 i;
#X text 157 -34 i;
#X text 343 -35 w;
#X text 173 -35 w;
#X obj 266 -18 sel 113 105 119;
#X obj 110 -18 sel 38 31 52;
#X text 138 -35 q;
#X text 299 -35 q;
#X text 346 93 i : pause;
#X text 346 113 w : start;
#X text 346 73 q : reset;
#X obj 382 183 r win;
#X obj 322 239 once;
#X obj 382 224 bng 15 250 50 0 empty empty empty 17 7 0 10 -262144
-1 -1;
#X connect 1 0 0 0;
#X connect 2 0 3 0;
#X connect 4 0 10 0;
#X connect 6 0 1 0;
#X connect 7 0 8 0;
#X connect 8 0 19 0;
#X connect 9 0 5 0;
#X connect 10 0 9 0;
#X connect 10 1 26 0;
#X connect 12 0 13 0;
#X connect 13 0 18 0;
#X connect 18 0 1 0;
#X connect 18 1 2 0;
#X connect 18 2 4 0;
#X connect 19 0 1 0;
#X connect 19 1 2 0;
#X connect 19 2 4 0;
#X connect 25 0 27 0;
#X connect 26 0 11 0;
#X connect 27 0 26 1;
#X restore 20 -229 pd controle;
#X msg 333 -267 55;
#X msg 301 -267 70;
#X obj 176 -63 chienchien 1 -2.87;
#N canvas 316 98 480 579 win 0;
#X obj 46 -210 r win;
#X msg 93 -116 open \$1-win.png;
#X obj -123 198 pix_texture;
#X obj -252 181 init quality 0;
#X obj -123 82 pix_info;
#X floatatom -33 183 5 0 0 0 - - -;
#X floatatom 26 180 5 0 0 0 - - -;
#X obj -123 291 rectangle;
#X obj -252 155 bng 15 250 50 0 empty empty empty 17 7 0 10 -262144
-1 -1;
#X obj -123 1 gemhead 51;
#X obj -33 209 / 163;
#X obj 26 206 / 163;
#X obj -123 -28 tgl 15 0 empty empty empty 17 7 0 10 -262144 -1 -1
0 1;
#X msg -51 -45 0;
#X obj -123 -107 t f b;
#X obj -123 55 pix_image;
#X obj 46 -153 t b f;
#X msg 46 -124 1;
#X obj -123 -59 metro 1000;
#X msg -123 -183 0;
#X obj -123 -210 r reset;
#X obj -123 27 translateXYZ 0 2 0;
#X msg 36 38 open toto.png;
#X connect 0 0 16 0;
#X connect 1 0 15 0;
#X connect 2 0 7 0;
#X connect 3 0 2 0;
#X connect 4 0 2 0;
#X connect 4 1 5 0;
#X connect 4 2 6 0;
#X connect 5 0 10 0;
#X connect 6 0 11 0;
#X connect 8 0 3 0;
#X connect 9 0 21 0;
#X connect 10 0 7 1;
#X connect 11 0 7 2;
#X connect 12 0 9 0;
#X connect 13 0 12 0;
#X connect 14 0 18 0;
#X connect 14 1 13 0;
#X connect 15 0 4 0;
#X connect 16 0 17 0;
#X connect 16 1 1 0;
#X connect 17 0 14 0;
#X connect 18 0 12 0;
#X connect 19 0 14 0;
#X connect 20 0 19 0;
#X connect 21 0 15 0;
#X connect 22 0 15 0;
#X restore 20 -175 pd win;
#X connect 15 0 4 0;
#X connect 15 0 10 0;
#X connect 16 0 7 0;
#X connect 16 0 13 0;
#X connect 17 0 43 0;
#X connect 17 0 42 0;
#X connect 42 0 16 0;
#X connect 43 0 15 0;
