#N canvas 31 110 1241 654 10;
#X obj 173 285 pix_texture;
#X obj 44 268 init quality 0;
#X obj 173 169 pix_info;
#X floatatom 263 270 5 0 0 0 - - -;
#X floatatom 322 267 5 0 0 0 - - -;
#X obj 173 378 rectangle;
#X obj 263 296 / 100;
#X obj 322 293 / 100;
#X obj 173 38 alpha;
#X obj 173 9 gemhead 60;
#X floatatom 210 69 5 0 0 0 - - -;
#X floatatom 247 69 5 0 0 0 - - -;
#X obj 173 132 pix_image ch\$1-nb.png;
#X obj 612 678 pix_texture;
#X obj 483 661 init quality 0;
#X obj 612 562 pix_info;
#X floatatom 702 663 5 0 0 0 - - -;
#X floatatom 761 660 5 0 0 0 - - -;
#X obj 612 771 rectangle;
#X obj 702 689 / 100;
#X obj 761 686 / 100;
#X obj 612 21 alpha;
#X obj 612 -6 gemhead 60;
#X floatatom 655 21 5 0 0 0 - - -;
#X floatatom 698 21 5 0 0 0 - - -;
#X obj 949 678 pix_texture;
#X obj 820 661 init quality 0;
#X obj 949 562 pix_info;
#X floatatom 1039 663 5 0 0 0 - - -;
#X floatatom 1098 660 5 0 0 0 - - -;
#X obj 949 771 rectangle;
#X obj 1039 689 / 100;
#X obj 1098 686 / 100;
#X obj 949 21 alpha;
#X obj 949 -6 gemhead 60;
#X floatatom 992 21 5 0 0 0 - - -;
#X floatatom 1035 21 5 0 0 0 - - -;
#X obj 612 47 translateXYZ \$2 4.25 0;
#X obj 949 47 translateXYZ \$2 5.96 0;
#X obj 612 525 pix_image noteN-D.png;
#X obj 949 522 pix_image noteN-G.png;
#X msg 657 463 open noteN-D.png;
#X msg 676 491 open noteB-G.png;
#X msg 993 461 open noteN-G.png;
#X msg 1012 489 open noteB-D.png;
#X obj 657 375 init \$1;
#X obj 657 407 sel 1 2;
#X obj 993 369 init \$1;
#X obj 993 401 sel 1 2;
#X obj 612 192 translateXYZ 0 0 0;
#X obj 647 101 sel 1 2;
#X msg 647 128 1.7;
#X msg 666 156 -1.7;
#X obj 647 74 init \$1;
#X obj 949 192 translateXYZ 0 0 0;
#X obj 984 101 sel 1 2;
#X obj 984 74 init \$1;
#X msg 984 128 -1;
#X msg 1003 156 1;
#X obj 612 307 translateXYZ 0 0 0;
#X obj 949 303 translateXYZ 0 0 0;
#X obj 341 29 spigot 1;
#X obj 452 -11 r reset;
#X obj 173 95 translateXYZ \$2 0 0;
#X obj 341 -32 r shoot-\$1;
#X obj 341 52 moteur \$1;
#X obj 745 -105 r reset;
#X msg 745 -52 0;
#X obj 682 243 r win-note-\$1;
#X obj 1019 239 r win-note-\$1;
#X obj 1019 271 * -1;
#X msg 809 -52 1;
#X obj 386 -11 r start;
#X msg 452 12 0;
#X obj 809 -105 r win;
#X obj 809 -78 sel \$1;
#X connect 0 0 5 0;
#X connect 1 0 0 0;
#X connect 2 0 0 0;
#X connect 2 1 3 0;
#X connect 2 2 4 0;
#X connect 3 0 6 0;
#X connect 4 0 7 0;
#X connect 6 0 5 1;
#X connect 7 0 5 2;
#X connect 8 0 63 0;
#X connect 9 0 8 0;
#X connect 10 0 63 1;
#X connect 11 0 63 2;
#X connect 12 0 2 0;
#X connect 13 0 18 0;
#X connect 14 0 13 0;
#X connect 15 0 13 0;
#X connect 15 1 16 0;
#X connect 15 2 17 0;
#X connect 16 0 19 0;
#X connect 17 0 20 0;
#X connect 19 0 18 1;
#X connect 20 0 18 2;
#X connect 21 0 37 0;
#X connect 22 0 21 0;
#X connect 23 0 37 1;
#X connect 24 0 37 2;
#X connect 25 0 30 0;
#X connect 26 0 25 0;
#X connect 27 0 25 0;
#X connect 27 1 28 0;
#X connect 27 2 29 0;
#X connect 28 0 31 0;
#X connect 29 0 32 0;
#X connect 31 0 30 1;
#X connect 32 0 30 2;
#X connect 33 0 38 0;
#X connect 34 0 33 0;
#X connect 35 0 38 1;
#X connect 36 0 38 2;
#X connect 37 0 49 0;
#X connect 38 0 54 0;
#X connect 39 0 15 0;
#X connect 40 0 27 0;
#X connect 41 0 39 0;
#X connect 42 0 39 0;
#X connect 43 0 40 0;
#X connect 44 0 40 0;
#X connect 45 0 46 0;
#X connect 46 0 41 0;
#X connect 46 1 42 0;
#X connect 47 0 48 0;
#X connect 48 0 43 0;
#X connect 48 1 44 0;
#X connect 49 0 59 0;
#X connect 50 0 51 0;
#X connect 50 1 52 0;
#X connect 51 0 49 1;
#X connect 52 0 49 1;
#X connect 53 0 50 0;
#X connect 54 0 60 0;
#X connect 55 0 57 0;
#X connect 55 1 58 0;
#X connect 56 0 55 0;
#X connect 57 0 54 1;
#X connect 58 0 54 1;
#X connect 59 0 39 0;
#X connect 60 0 40 0;
#X connect 61 0 65 0;
#X connect 62 0 73 0;
#X connect 63 0 12 0;
#X connect 64 0 61 0;
#X connect 65 0 11 0;
#X connect 66 0 67 0;
#X connect 67 0 22 0;
#X connect 67 0 34 0;
#X connect 68 0 59 2;
#X connect 69 0 70 0;
#X connect 70 0 60 2;
#X connect 71 0 22 0;
#X connect 71 0 34 0;
#X connect 72 0 61 1;
#X connect 73 0 61 1;
#X connect 74 0 75 0;
#X connect 75 0 71 0;
